<svg width="19" height="21" viewBox="0 0 19 21" fill="none" xmlns="http://www.w3.org/2000/svg">
<path d="M17.7188 7.92188L10.2188 0.421875C9.9375 0.140625 9.5625 0 9.1875 0C8.76562 0 8.39062 0.140625 8.10938 0.421875L0.609375 7.92188C0 8.48438 0 9.46875 0.609375 10.0312C1.17188 10.6406 2.15625 10.6406 2.71875 10.0312L7.6875 5.10938V19.5C7.6875 20.2969 8.34375 20.9531 9.14062 20.9531C9.89062 20.9531 10.6875 20.2969 10.6875 19.5V5.10938L15.6094 10.0312C16.1719 10.6406 17.1562 10.6406 17.7188 10.0312C18.3281 9.46875 18.3281 8.48438 17.7188 7.92188Z" fill="#73D065"/>
</svg>
