<svg width="46" height="46" viewBox="0 0 46 46" fill="none" xmlns="http://www.w3.org/2000/svg">
<path d="M41.6875 22.9551C41.6875 16.3066 38.0938 10.1973 32.3438 6.7832C26.5039 3.45898 19.4062 3.45898 13.6562 6.7832C7.81641 10.1973 4.3125 16.3066 4.3125 22.9551C4.3125 29.6934 7.81641 35.8027 13.6562 39.2168C19.4062 42.541 26.5039 42.541 32.3438 39.2168C38.0938 35.8027 41.6875 29.6934 41.6875 22.9551ZM0 22.9551C0 14.7793 4.3125 7.23242 11.5 3.09961C18.5977 -1.0332 27.3125 -1.0332 34.5 3.09961C41.5977 7.23242 46 14.7793 46 22.9551C46 31.2207 41.5977 38.7676 34.5 42.9004C27.3125 47.0332 18.5977 47.0332 11.5 42.9004C4.3125 38.7676 0 31.2207 0 22.9551ZM20.8438 10.7363C20.8438 9.56836 21.7422 8.58008 23 8.58008C24.168 8.58008 25.1562 9.56836 25.1562 10.7363V21.877L32.793 26.9082C33.7812 27.627 34.0508 28.9746 33.4219 29.9629C32.7031 30.9512 31.3555 31.2207 30.3672 30.502L21.7422 24.752C21.2031 24.3926 20.8438 23.6738 20.8438 22.9551V10.7363Z" fill="#78D36A"/>
</svg>
