<svg width="32" height="32" viewBox="0 0 32 32" fill="none" xmlns="http://www.w3.org/2000/svg">
<path d="M18 2V17.1875L22.5625 12.625C23.3125 11.8125 24.625 11.8125 25.375 12.625C26.1875 13.375 26.1875 14.6875 25.375 15.4375L17.375 23.4375C16.625 24.25 15.3125 24.25 14.5625 23.4375L6.5625 15.4375C5.75 14.6875 5.75 13.375 6.5625 12.625C7.3125 11.8125 8.625 11.8125 9.375 12.625L14 17.1875V2C14 0.9375 14.875 0 16 0C17.0625 0 18 0.9375 18 2ZM4 22H10.3125L13.125 24.875C14.6875 26.4375 17.25 26.4375 18.8125 24.875L21.625 22H28C30.1875 22 32 23.8125 32 26V28C32 30.25 30.1875 32 28 32H4C1.75 32 0 30.25 0 28V26C0 23.8125 1.75 22 4 22ZM27 25.5C26.125 25.5 25.5 26.1875 25.5 27C25.5 27.875 26.125 28.5 27 28.5C27.8125 28.5 28.5 27.875 28.5 27C28.5 26.1875 27.8125 25.5 27 25.5Z" fill="#78D36A"/>
</svg>
