<svg width="799" height="279" viewBox="0 0 799 279" fill="none" xmlns="http://www.w3.org/2000/svg">
<path d="M239.546 137.711C247.978 132.345 255.002 126.928 259.939 121.703C286.866 93.16 286.049 47.6905 258.113 20.1435C230.177 -7.40348 185.702 -6.59619 158.775 21.9466C152.391 28.7141 145.786 39.1475 139.422 51.7046C132.61 39.3953 125.634 29.1998 119.01 22.6684C91.0745 -4.87856 46.5995 -4.07127 19.6724 24.4715C-7.2547 53.0143 -6.4371 98.4839 21.4986 126.031C26.6207 131.082 33.8347 136.232 42.4543 141.289C34.0221 146.655 26.9981 152.072 22.0608 157.297C-4.86632 185.84 -4.04871 231.31 23.887 258.857C51.8226 286.403 96.2976 285.596 123.225 257.053C129.609 250.286 136.214 239.852 142.579 227.295C149.391 239.605 156.366 249.792 162.99 256.332C190.926 283.879 235.401 283.071 262.328 254.528C289.255 225.986 288.437 180.516 260.501 152.969C255.379 147.918 248.165 142.768 239.546 137.711ZM215.924 190.715C241.191 215.631 237.75 222.492 231.572 229.04C225.394 235.589 218.813 239.353 193.545 214.437C170.921 192.118 146.092 157.407 141.021 142.989C136.296 157.722 112.871 193.06 91.1705 216.062C66.8153 241.879 60.1026 238.356 53.6935 232.036C47.2844 225.716 43.5985 218.985 67.9536 193.169C89.6541 170.166 123.274 144.948 137.563 139.597C123.279 134.919 88.4606 110.823 65.8442 88.5127C40.5768 63.5969 44.0184 56.7363 50.196 50.1879C56.3737 43.6396 62.9555 39.8755 88.2228 64.7913C111.088 87.3382 136.193 122.45 140.916 136.667C144.916 122.464 168.889 86.1856 191.053 62.6921C215.408 36.8756 222.121 40.3984 228.53 46.7183C234.939 53.0382 238.625 59.7694 214.27 85.5859C192.114 109.071 157.443 134.868 143.764 139.476C157.814 143.77 193.067 168.168 215.932 190.715L215.924 190.715Z" fill="#78D36A"/>
<path d="M312.965 101.3C312.965 98.8253 313.818 96.7347 315.525 95.028C317.317 93.236 319.45 92.34 321.925 92.34C324.656 92.34 326.789 93.1507 328.325 94.772C329.093 94.0893 330.032 93.5347 331.141 93.108C332.336 92.596 333.53 92.34 334.725 92.34C335.92 92.34 337.072 92.596 338.181 93.108C339.29 93.62 340.229 94.26 340.997 95.028V95.156L341.125 95.028C342.917 93.236 345.05 92.34 347.525 92.34C350.256 92.34 352.389 93.1507 353.925 94.772C354.693 94.0893 355.632 93.5347 356.741 93.108C357.936 92.596 359.13 92.34 360.325 92.34C362.8 92.34 364.89 93.236 366.597 95.028C368.389 96.7347 369.285 98.8253 369.285 101.3C369.285 103.775 368.389 105.908 366.597 107.7C364.89 109.407 362.8 110.26 360.325 110.26C357.765 110.26 355.717 109.492 354.181 107.956C354.01 107.871 353.925 107.828 353.925 107.828V107.572L353.797 107.7C353.626 107.7 353.541 107.785 353.541 107.956C351.834 109.492 349.829 110.26 347.525 110.26C344.965 110.26 342.917 109.492 341.381 107.956C341.21 107.871 341.125 107.828 341.125 107.828V107.572L340.997 107.7C340.826 107.7 340.741 107.785 340.741 107.956C339.034 109.492 337.029 110.26 334.725 110.26C332.165 110.26 330.117 109.492 328.581 107.956C328.41 107.871 328.325 107.828 328.325 107.828V107.572L328.197 107.7C328.026 107.7 327.984 107.828 328.069 108.084C328.24 108.34 328.325 108.255 328.325 107.828L328.453 107.956C330.074 109.577 330.885 111.625 330.885 114.1C330.885 115.295 330.629 116.447 330.117 117.556C329.605 118.665 328.965 119.647 328.197 120.5L328.453 120.756C330.074 122.377 330.885 124.425 330.885 126.9C330.885 129.545 329.946 131.721 328.069 133.428V133.556C329.776 131.679 331.994 130.74 334.725 130.74C337.2 130.74 339.333 131.636 341.125 133.428C342.746 131.636 344.88 130.74 347.525 130.74C350.256 130.74 352.389 131.551 353.925 133.172C354.693 132.489 355.632 131.935 356.741 131.508C357.936 130.996 359.13 130.74 360.325 130.74C362.8 130.74 364.89 131.636 366.597 133.428C368.389 135.135 369.285 137.225 369.285 139.7C369.285 142.175 368.389 144.308 366.597 146.1C364.89 147.807 362.8 148.66 360.325 148.66C357.765 148.66 355.717 147.892 354.181 146.356C354.01 146.271 353.925 146.228 353.925 146.228V145.972L353.797 146.1C353.626 146.1 353.541 146.185 353.541 146.356C352.688 147.209 351.749 147.807 350.725 148.148C349.701 148.489 348.634 148.66 347.525 148.66C344.965 148.66 342.917 147.892 341.381 146.356C341.21 146.271 341.125 146.228 341.125 146.228V145.972L340.997 146.1C340.826 146.1 340.741 146.185 340.741 146.356C339.034 147.892 337.029 148.66 334.725 148.66C332.165 148.66 330.117 147.892 328.581 146.356C328.41 146.271 328.325 146.228 328.325 146.228V145.972L328.197 146.1C328.026 146.1 327.984 146.228 328.069 146.484C328.24 146.74 328.325 146.655 328.325 146.228L328.453 146.356C330.074 147.977 330.885 150.025 330.885 152.5C330.885 153.695 330.629 154.847 330.117 155.956C329.605 157.065 328.965 158.047 328.197 158.9L328.453 159.156C330.074 160.777 330.885 162.825 330.885 165.3C330.885 166.495 330.629 167.647 330.117 168.756C329.605 169.865 328.965 170.847 328.197 171.7L328.325 171.828C329.946 170.036 332.08 169.14 334.725 169.14C337.456 169.14 339.589 169.951 341.125 171.572C341.893 170.889 342.832 170.335 343.941 169.908C345.136 169.396 346.33 169.14 347.525 169.14C350 169.14 352.048 169.951 353.669 171.572C353.754 171.657 353.84 171.7 353.925 171.7V171.828C354.096 171.828 354.181 171.743 354.181 171.572C355.802 169.951 357.85 169.14 360.325 169.14C362.8 169.14 364.89 170.036 366.597 171.828C368.389 173.535 369.285 175.625 369.285 178.1C369.285 180.575 368.389 182.708 366.597 184.5C364.89 186.207 362.8 187.06 360.325 187.06C357.765 187.06 355.717 186.292 354.181 184.756C354.01 184.585 353.925 184.5 353.925 184.5V184.372L353.797 184.5C353.626 184.5 353.541 184.543 353.541 184.628V184.756C351.834 186.292 349.829 187.06 347.525 187.06C344.965 187.06 342.917 186.292 341.381 184.756C341.21 184.585 341.125 184.5 341.125 184.5V184.372L340.997 184.5C340.826 184.5 340.741 184.543 340.741 184.628C339.12 186.249 337.114 187.06 334.725 187.06C332.165 187.06 330.117 186.292 328.581 184.756C328.41 184.585 328.325 184.5 328.325 184.5V184.372L328.197 184.5C328.026 184.5 327.941 184.543 327.941 184.628V184.756C326.234 186.292 324.229 187.06 321.925 187.06C319.45 187.06 317.317 186.207 315.525 184.5C313.818 182.708 312.965 180.575 312.965 178.1C312.965 175.625 313.733 173.62 315.269 172.084C315.44 171.913 315.525 171.785 315.525 171.7H315.653L315.269 171.316C313.733 169.78 312.965 167.775 312.965 165.3C312.965 162.825 313.733 160.82 315.269 159.284C315.44 159.113 315.525 158.985 315.525 158.9H315.653L315.269 158.516C313.733 156.98 312.965 154.975 312.965 152.5C312.965 150.025 313.733 148.02 315.269 146.484C315.44 146.313 315.525 146.185 315.525 146.1H315.653L315.397 145.844C313.776 144.223 312.965 142.175 312.965 139.7C312.965 137.225 313.733 135.22 315.269 133.684C315.44 133.513 315.525 133.385 315.525 133.3H315.653L315.269 132.916C313.733 131.38 312.965 129.375 312.965 126.9C312.965 124.425 313.733 122.42 315.269 120.884C315.44 120.713 315.525 120.585 315.525 120.5H315.653L315.269 120.116C313.733 118.58 312.965 116.575 312.965 114.1C312.965 111.625 313.733 109.62 315.269 108.084C315.44 107.913 315.525 107.785 315.525 107.7H315.653L315.269 107.316C313.733 105.78 312.965 103.775 312.965 101.3ZM364.165 165.3C364.165 162.825 364.933 160.82 366.469 159.284C366.64 159.113 366.725 158.985 366.725 158.9H366.853L366.597 158.644C364.976 157.023 364.165 154.975 364.165 152.5C364.165 150.025 365.018 147.935 366.725 146.228C368.517 144.436 370.65 143.54 373.125 143.54C375.6 143.54 377.69 144.436 379.397 146.228C381.189 147.935 382.085 150.025 382.085 152.5C382.085 153.695 381.829 154.847 381.317 155.956C380.805 157.065 380.165 158.047 379.397 158.9L379.653 159.156C381.274 160.777 382.085 162.825 382.085 165.3C382.085 167.775 381.189 169.908 379.397 171.7C377.69 173.407 375.6 174.26 373.125 174.26C370.65 174.26 368.517 173.407 366.725 171.7C365.018 169.908 364.165 167.775 364.165 165.3ZM353.541 107.956C353.626 108.127 353.712 108.255 353.797 108.34C353.882 108.34 353.925 108.169 353.925 107.828L353.797 107.7L353.541 107.956ZM340.741 146.356C340.826 146.527 340.912 146.655 340.997 146.74C341.082 146.74 341.125 146.569 341.125 146.228L340.997 146.1L340.741 146.356ZM340.741 107.956C340.826 108.127 340.912 108.255 340.997 108.34C341.082 108.34 341.125 108.169 341.125 107.828L340.997 107.7L340.741 107.956ZM353.541 146.356C353.626 146.527 353.712 146.655 353.797 146.74C353.882 146.74 353.925 146.569 353.925 146.228L353.797 146.1L353.541 146.356ZM327.941 184.628C328.026 184.799 328.112 184.884 328.197 184.884C328.282 184.969 328.325 184.841 328.325 184.5H328.197L327.941 184.628ZM353.541 184.628C353.626 184.799 353.712 184.884 353.797 184.884C353.882 184.969 353.925 184.841 353.925 184.5H353.797L353.541 184.628ZM354.181 171.572C354.096 171.401 354.01 171.273 353.925 171.188C353.84 171.103 353.84 171.273 353.925 171.7V171.828L354.181 171.572ZM340.741 184.628C340.826 184.799 340.912 184.884 340.997 184.884C341.082 184.969 341.125 184.841 341.125 184.5H340.997L340.869 184.628H340.741ZM460.115 114.1C460.115 111.625 460.968 109.535 462.675 107.828C462.59 107.743 462.59 107.743 462.675 107.828C462.76 107.828 462.76 107.785 462.675 107.7C461.736 106.761 461.054 105.78 460.627 104.756C460.286 103.647 460.115 102.537 460.115 101.428C460.115 99.124 460.926 97.0333 462.547 95.156C464.168 93.2787 466.344 92.34 469.075 92.34C471.55 92.34 473.64 93.236 475.347 95.028C477.139 96.7347 478.035 98.8253 478.035 101.3C478.035 103.775 477.139 105.908 475.347 107.7L475.219 107.828C474.963 108.084 474.92 108.255 475.091 108.34C475.262 108.34 475.432 108.255 475.603 108.084C477.224 109.876 478.035 111.881 478.035 114.1C478.035 116.575 477.139 118.708 475.347 120.5L475.219 120.628C474.963 120.884 474.92 121.055 475.091 121.14C475.262 121.14 475.432 121.055 475.603 120.884C477.224 122.676 478.035 124.681 478.035 126.9C478.035 129.375 477.139 131.508 475.347 133.3C473.64 135.007 471.55 135.86 469.075 135.86C466.344 135.86 464.168 134.921 462.547 133.044C460.926 131.167 460.115 129.076 460.115 126.772C460.115 124.383 460.968 122.335 462.675 120.628L462.547 120.5C460.926 118.708 460.115 116.575 460.115 114.1ZM408.915 114.1C408.915 111.625 409.768 109.535 411.475 107.828C411.39 107.743 411.39 107.743 411.475 107.828C411.56 107.828 411.56 107.785 411.475 107.7C410.536 106.761 409.854 105.78 409.427 104.756C409.086 103.647 408.915 102.537 408.915 101.428C408.915 99.124 409.726 97.0333 411.347 95.156C412.968 93.2787 415.144 92.34 417.875 92.34C420.35 92.34 422.44 93.236 424.147 95.028C425.939 96.7347 426.835 98.8253 426.835 101.3C426.835 103.775 425.939 105.908 424.147 107.7L424.019 107.828C423.763 108.084 423.72 108.255 423.891 108.34C424.062 108.34 424.232 108.255 424.403 108.084C426.024 109.876 426.835 111.881 426.835 114.1C426.835 116.575 425.939 118.708 424.147 120.5L424.019 120.628C423.763 120.884 423.72 121.055 423.891 121.14C424.062 121.14 424.232 121.055 424.403 120.884C426.024 122.676 426.835 124.681 426.835 126.9C426.835 129.375 425.939 131.508 424.147 133.3C422.44 135.007 420.35 135.86 417.875 135.86C415.144 135.86 412.968 134.921 411.347 133.044C409.726 131.167 408.915 129.076 408.915 126.772C408.915 124.383 409.768 122.335 411.475 120.628L411.347 120.5C409.726 118.708 408.915 116.575 408.915 114.1ZM421.715 139.7C421.715 137.225 422.568 135.135 424.275 133.428C426.067 131.636 428.2 130.74 430.675 130.74C433.15 130.74 435.24 131.636 436.947 133.428C438.739 135.135 439.635 137.225 439.635 139.7C439.635 142.175 438.739 144.308 436.947 146.1C435.24 147.807 433.15 148.66 430.675 148.66C428.2 148.66 426.067 147.807 424.275 146.1C422.568 144.308 421.715 142.175 421.715 139.7ZM447.315 139.7C447.315 137.225 448.168 135.135 449.875 133.428C451.667 131.636 453.8 130.74 456.275 130.74C458.75 130.74 460.84 131.636 462.547 133.428C464.339 135.135 465.235 137.225 465.235 139.7C465.235 142.175 464.339 144.308 462.547 146.1C460.84 147.807 458.75 148.66 456.275 148.66C453.8 148.66 451.667 147.807 449.875 146.1C448.168 144.308 447.315 142.175 447.315 139.7ZM408.915 178.1C408.915 175.625 409.768 173.535 411.475 171.828C413.267 170.036 415.4 169.14 417.875 169.14C420.35 169.14 422.44 170.036 424.147 171.828C425.939 173.535 426.835 175.625 426.835 178.1C426.835 180.575 425.939 182.708 424.147 184.5C422.44 186.207 420.35 187.06 417.875 187.06C415.4 187.06 413.267 186.207 411.475 184.5C409.768 182.708 408.915 180.575 408.915 178.1ZM434.515 152.5C434.515 150.025 435.368 147.935 437.075 146.228C438.867 144.436 441 143.54 443.475 143.54C445.95 143.54 448.04 144.436 449.747 146.228C451.539 147.935 452.435 150.025 452.435 152.5C452.435 154.975 451.539 157.108 449.747 158.9C448.04 160.607 445.95 161.46 443.475 161.46C441 161.46 438.867 160.607 437.075 158.9C435.368 157.108 434.515 154.975 434.515 152.5ZM421.715 165.3C421.715 162.825 422.568 160.735 424.275 159.028C426.067 157.236 428.2 156.34 430.675 156.34C433.15 156.34 435.24 157.236 436.947 159.028C438.739 160.735 439.635 162.825 439.635 165.3C439.635 167.775 438.739 169.908 436.947 171.7C435.24 173.407 433.15 174.26 430.675 174.26C428.2 174.26 426.067 173.407 424.275 171.7C422.568 169.908 421.715 167.775 421.715 165.3ZM475.603 108.084C475.774 107.913 475.688 107.828 475.347 107.828C475.347 107.999 475.432 108.084 475.603 108.084ZM424.403 108.084C424.574 107.913 424.488 107.828 424.147 107.828C424.147 107.999 424.232 108.084 424.403 108.084ZM475.603 120.884C475.774 120.713 475.688 120.628 475.347 120.628C475.347 120.799 475.432 120.884 475.603 120.884ZM424.403 120.884C424.574 120.713 424.488 120.628 424.147 120.628C424.147 120.799 424.232 120.884 424.403 120.884ZM530.465 114.1C530.465 111.625 531.233 109.62 532.769 108.084C533.025 107.828 533.11 107.7 533.025 107.7C532.94 107.615 532.812 107.615 532.641 107.7C532.556 107.7 532.47 107.743 532.385 107.828C532.3 107.913 532.385 107.956 532.641 107.956C530.934 109.492 528.929 110.26 526.625 110.26C524.065 110.26 522.017 109.492 520.481 107.956C520.31 107.871 520.225 107.828 520.225 107.828V107.572L520.097 107.7C519.926 107.7 519.841 107.785 519.841 107.956C518.988 108.809 518.049 109.407 517.025 109.748C516.001 110.089 514.934 110.26 513.825 110.26C511.35 110.26 509.217 109.407 507.425 107.7C505.718 105.908 504.865 103.775 504.865 101.3C504.865 98.8253 505.718 96.7347 507.425 95.028C509.217 93.236 511.35 92.34 513.825 92.34C516.556 92.34 518.689 93.1507 520.225 94.772C520.993 94.0893 521.932 93.5347 523.041 93.108C524.236 92.596 525.43 92.34 526.625 92.34C529.1 92.34 531.233 93.236 533.025 95.028C534.646 93.236 536.78 92.34 539.425 92.34C540.62 92.34 541.772 92.596 542.881 93.108C543.99 93.62 544.929 94.26 545.697 95.028V95.156L545.825 95.028C547.617 93.236 549.75 92.34 552.225 92.34C554.956 92.34 557.089 93.1507 558.625 94.772C559.393 94.0893 560.332 93.5347 561.441 93.108C562.636 92.596 563.83 92.34 565.025 92.34C567.5 92.34 569.59 93.236 571.297 95.028C573.089 96.7347 573.985 98.8253 573.985 101.3C573.985 103.775 573.089 105.908 571.297 107.7C569.59 109.407 567.5 110.26 565.025 110.26C562.465 110.26 560.417 109.492 558.881 107.956C558.71 107.871 558.625 107.828 558.625 107.828V107.572L558.497 107.7C558.326 107.7 558.241 107.785 558.241 107.956C556.534 109.492 554.529 110.26 552.225 110.26C549.665 110.26 547.617 109.492 546.081 107.956C545.91 107.871 545.825 107.828 545.825 107.828V107.572L545.697 107.7C545.526 107.7 545.484 107.828 545.569 108.084C545.74 108.34 545.825 108.255 545.825 107.828L545.953 107.956C547.574 109.577 548.385 111.625 548.385 114.1C548.385 115.295 548.129 116.447 547.617 117.556C547.105 118.665 546.465 119.647 545.697 120.5L545.953 120.756C547.574 122.377 548.385 124.425 548.385 126.9C548.385 128.095 548.129 129.247 547.617 130.356C547.105 131.465 546.465 132.447 545.697 133.3L545.953 133.556C547.574 135.177 548.385 137.225 548.385 139.7C548.385 140.895 548.129 142.047 547.617 143.156C547.105 144.265 546.465 145.247 545.697 146.1L545.953 146.356C547.574 147.977 548.385 150.025 548.385 152.5C548.385 153.695 548.129 154.847 547.617 155.956C547.105 157.065 546.465 158.047 545.697 158.9L545.953 159.156C547.574 160.777 548.385 162.825 548.385 165.3C548.385 166.495 548.129 167.647 547.617 168.756C547.105 169.865 546.465 170.847 545.697 171.7L545.953 171.956C547.574 173.577 548.385 175.625 548.385 178.1C548.385 180.575 547.489 182.708 545.697 184.5C543.99 186.207 541.9 187.06 539.425 187.06C536.95 187.06 534.817 186.207 533.025 184.5C531.318 182.708 530.465 180.575 530.465 178.1C530.465 175.625 531.233 173.62 532.769 172.084C532.94 171.913 533.025 171.785 533.025 171.7H533.153L532.769 171.316C531.233 169.78 530.465 167.775 530.465 165.3C530.465 162.825 531.233 160.82 532.769 159.284C532.94 159.113 533.025 158.985 533.025 158.9H533.153L532.769 158.516C531.233 156.98 530.465 154.975 530.465 152.5C530.465 150.025 531.233 148.02 532.769 146.484C532.94 146.313 533.025 146.185 533.025 146.1H533.153L532.897 145.844C531.276 144.223 530.465 142.175 530.465 139.7C530.465 137.225 531.233 135.22 532.769 133.684C532.94 133.513 533.025 133.385 533.025 133.3H533.153L532.897 133.044C531.276 131.423 530.465 129.375 530.465 126.9C530.465 124.425 531.233 122.42 532.769 120.884C532.94 120.713 533.025 120.585 533.025 120.5H533.153L532.897 120.244C531.276 118.623 530.465 116.575 530.465 114.1ZM519.841 107.956C519.926 108.127 520.012 108.255 520.097 108.34C520.182 108.34 520.225 108.169 520.225 107.828L520.097 107.7L519.841 107.956ZM558.241 107.956C558.326 108.127 558.412 108.255 558.497 108.34C558.582 108.34 558.625 108.169 558.625 107.828L558.497 107.7L558.241 107.956ZM532.641 107.956C532.812 107.871 532.897 107.828 532.897 107.828V107.7L532.641 107.956ZM600.815 152.5C600.815 150.025 601.583 148.02 603.119 146.484C603.29 146.313 603.375 146.185 603.375 146.1H603.503L603.119 145.716C601.583 144.18 600.815 142.175 600.815 139.7C600.815 137.225 601.583 135.22 603.119 133.684C603.29 133.513 603.375 133.385 603.375 133.3H603.503L603.119 132.916C601.583 131.38 600.815 129.375 600.815 126.9C600.815 124.425 601.583 122.42 603.119 120.884C603.29 120.713 603.375 120.585 603.375 120.5H603.503L603.247 120.244C601.626 118.623 600.815 116.575 600.815 114.1C600.815 111.625 601.668 109.535 603.375 107.828C605.167 106.036 607.3 105.14 609.775 105.14C612.25 105.14 614.34 106.036 616.047 107.828C617.839 109.535 618.735 111.625 618.735 114.1C618.735 115.295 618.479 116.447 617.967 117.556C617.455 118.665 616.815 119.647 616.047 120.5L616.303 120.756C617.924 122.377 618.735 124.425 618.735 126.9C618.735 128.095 618.479 129.247 617.967 130.356C617.455 131.465 616.815 132.447 616.047 133.3L616.303 133.556C617.924 135.177 618.735 137.225 618.735 139.7C618.735 140.895 618.479 142.047 617.967 143.156C617.455 144.265 616.815 145.247 616.047 146.1L616.303 146.356C617.924 147.977 618.735 150.025 618.735 152.5C618.735 153.695 618.479 154.847 617.967 155.956C617.455 157.065 616.815 158.047 616.047 158.9L616.303 159.156C617.924 160.777 618.735 162.825 618.735 165.3C618.735 167.775 617.839 169.908 616.047 171.7C614.34 173.407 612.25 174.26 609.775 174.26C607.3 174.26 605.167 173.407 603.375 171.7C601.668 169.908 600.815 167.775 600.815 165.3C600.815 162.825 601.583 160.82 603.119 159.284C603.29 159.113 603.375 158.985 603.375 158.9H603.503L603.119 158.516C601.583 156.98 600.815 154.975 600.815 152.5ZM652.015 152.5C652.015 150.025 652.783 148.02 654.319 146.484C654.49 146.313 654.575 146.185 654.575 146.1H654.703L654.319 145.716C652.783 144.18 652.015 142.175 652.015 139.7C652.015 137.225 652.783 135.22 654.319 133.684C654.49 133.513 654.575 133.385 654.575 133.3H654.703L654.319 132.916C652.783 131.38 652.015 129.375 652.015 126.9C652.015 124.425 652.783 122.42 654.319 120.884C654.49 120.713 654.575 120.585 654.575 120.5H654.703L654.447 120.244C652.826 118.623 652.015 116.575 652.015 114.1C652.015 111.625 652.868 109.535 654.575 107.828C656.367 106.036 658.5 105.14 660.975 105.14C663.45 105.14 665.54 106.036 667.247 107.828C669.039 109.535 669.935 111.625 669.935 114.1C669.935 115.295 669.679 116.447 669.167 117.556C668.655 118.665 668.015 119.647 667.247 120.5L667.503 120.756C669.124 122.377 669.935 124.425 669.935 126.9C669.935 128.095 669.679 129.247 669.167 130.356C668.655 131.465 668.015 132.447 667.247 133.3L667.503 133.556C669.124 135.177 669.935 137.225 669.935 139.7C669.935 140.895 669.679 142.047 669.167 143.156C668.655 144.265 668.015 145.247 667.247 146.1L667.503 146.356C669.124 147.977 669.935 150.025 669.935 152.5C669.935 153.695 669.679 154.847 669.167 155.956C668.655 157.065 668.015 158.047 667.247 158.9L667.503 159.156C669.124 160.777 669.935 162.825 669.935 165.3C669.935 167.775 669.039 169.908 667.247 171.7C665.54 173.407 663.45 174.26 660.975 174.26C658.5 174.26 656.367 173.407 654.575 171.7C652.868 169.908 652.015 167.775 652.015 165.3C652.015 162.825 652.783 160.82 654.319 159.284C654.49 159.113 654.575 158.985 654.575 158.9H654.703L654.319 158.516C652.783 156.98 652.015 154.975 652.015 152.5ZM613.615 178.1C613.615 175.625 614.468 173.535 616.175 171.828C617.967 170.036 620.1 169.14 622.575 169.14C625.306 169.14 627.439 169.951 628.975 171.572C629.743 170.889 630.682 170.335 631.791 169.908C632.986 169.396 634.18 169.14 635.375 169.14C637.85 169.14 639.898 169.951 641.519 171.572C641.604 171.657 641.69 171.7 641.775 171.7V171.828C641.946 171.828 642.031 171.743 642.031 171.572C643.652 169.951 645.7 169.14 648.175 169.14C650.65 169.14 652.74 170.036 654.447 171.828C656.239 173.535 657.135 175.625 657.135 178.1C657.135 180.575 656.239 182.708 654.447 184.5C652.74 186.207 650.65 187.06 648.175 187.06C645.615 187.06 643.567 186.292 642.031 184.756C641.86 184.585 641.775 184.5 641.775 184.5V184.372L641.647 184.5C641.476 184.5 641.391 184.543 641.391 184.628V184.756C639.684 186.292 637.679 187.06 635.375 187.06C632.815 187.06 630.767 186.292 629.231 184.756C629.06 184.585 628.975 184.5 628.975 184.5V184.372L628.847 184.5C628.676 184.5 628.591 184.543 628.591 184.628V184.756C626.884 186.292 624.879 187.06 622.575 187.06C620.1 187.06 617.967 186.207 616.175 184.5C614.468 182.708 613.615 180.575 613.615 178.1ZM613.615 101.3C613.615 98.8253 614.468 96.7347 616.175 95.028C617.967 93.236 620.1 92.34 622.575 92.34C625.05 92.34 627.098 93.1507 628.719 94.772C628.804 94.8573 628.89 94.9 628.975 94.9V95.028C629.146 95.028 629.231 94.9427 629.231 94.772C630.852 93.1507 632.9 92.34 635.375 92.34C637.85 92.34 639.983 93.236 641.775 95.028C643.396 93.236 645.53 92.34 648.175 92.34C650.65 92.34 652.74 93.236 654.447 95.028C656.239 96.7347 657.135 98.8253 657.135 101.3C657.135 103.775 656.239 105.908 654.447 107.7C652.74 109.407 650.65 110.26 648.175 110.26C645.615 110.26 643.567 109.492 642.031 107.956C641.86 107.871 641.775 107.828 641.775 107.828V107.572L641.647 107.7C641.476 107.7 641.391 107.785 641.391 107.956C639.684 109.492 637.679 110.26 635.375 110.26C632.815 110.26 630.767 109.492 629.231 107.956C629.06 107.871 628.975 107.828 628.975 107.828V107.572L628.847 107.7C628.676 107.7 628.591 107.785 628.591 107.956C626.884 109.492 624.879 110.26 622.575 110.26C620.1 110.26 617.967 109.407 616.175 107.7C614.468 105.908 613.615 103.775 613.615 101.3ZM641.391 107.956C641.476 108.127 641.562 108.255 641.647 108.34C641.732 108.34 641.775 108.169 641.775 107.828L641.647 107.7L641.391 107.956ZM628.591 107.956C628.676 108.127 628.762 108.255 628.847 108.34C628.932 108.34 628.975 108.169 628.975 107.828L628.847 107.7L628.591 107.956ZM628.591 184.628C628.676 184.799 628.762 184.884 628.847 184.884C628.932 184.969 628.975 184.841 628.975 184.5H628.847L628.591 184.628ZM642.031 171.572C641.946 171.401 641.86 171.273 641.775 171.188C641.69 171.103 641.69 171.273 641.775 171.7V171.828L642.031 171.572ZM629.231 94.772C629.146 94.6013 629.06 94.4733 628.975 94.388C628.89 94.3027 628.89 94.4733 628.975 94.9V95.028L629.231 94.772ZM641.391 184.628C641.476 184.799 641.562 184.884 641.647 184.884C641.732 184.969 641.775 184.841 641.775 184.5H641.647L641.519 184.628H641.391ZM747.965 152.5C747.965 150.025 748.733 148.02 750.269 146.484C750.354 146.399 750.397 146.313 750.397 146.228C750.568 145.887 750.44 145.844 750.013 146.1C749.672 146.271 749.714 146.356 750.141 146.356C749.288 147.209 748.349 147.807 747.325 148.148C746.301 148.489 745.234 148.66 744.125 148.66C741.565 148.66 739.517 147.892 737.981 146.356C737.81 146.271 737.725 146.228 737.725 146.228V145.972L737.597 146.1C737.426 146.1 737.341 146.185 737.341 146.356C736.488 147.209 735.549 147.807 734.525 148.148C733.501 148.489 732.434 148.66 731.325 148.66C728.765 148.66 726.717 147.892 725.181 146.356C725.01 146.271 724.925 146.228 724.925 146.228V145.972L724.797 146.1C724.626 146.1 724.541 146.185 724.541 146.356C723.688 147.209 722.749 147.807 721.725 148.148C720.701 148.489 719.634 148.66 718.525 148.66C715.965 148.66 713.917 147.892 712.381 146.356C712.21 146.271 712.125 146.228 712.125 146.228V145.972L711.997 146.1C711.826 146.1 711.784 146.228 711.869 146.484C712.04 146.74 712.125 146.655 712.125 146.228L712.253 146.356C713.874 147.977 714.685 150.025 714.685 152.5C714.685 153.695 714.429 154.847 713.917 155.956C713.405 157.065 712.765 158.047 711.997 158.9L712.253 159.156C713.874 160.777 714.685 162.825 714.685 165.3C714.685 166.495 714.429 167.647 713.917 168.756C713.405 169.865 712.765 170.847 711.997 171.7L712.253 171.956C713.874 173.577 714.685 175.625 714.685 178.1C714.685 180.575 713.789 182.708 711.997 184.5C710.29 186.207 708.2 187.06 705.725 187.06C703.25 187.06 701.117 186.207 699.325 184.5C697.618 182.708 696.765 180.575 696.765 178.1C696.765 175.625 697.533 173.62 699.069 172.084C699.24 171.913 699.325 171.785 699.325 171.7H699.453L699.069 171.316C697.533 169.78 696.765 167.775 696.765 165.3C696.765 162.825 697.533 160.82 699.069 159.284C699.24 159.113 699.325 158.985 699.325 158.9H699.453L699.069 158.516C697.533 156.98 696.765 154.975 696.765 152.5C696.765 150.025 697.533 148.02 699.069 146.484C699.24 146.313 699.325 146.185 699.325 146.1H699.453L699.069 145.716C697.533 144.18 696.765 142.175 696.765 139.7C696.765 137.225 697.533 135.22 699.069 133.684C699.24 133.513 699.325 133.385 699.325 133.3H699.453L699.069 132.916C697.533 131.38 696.765 129.375 696.765 126.9C696.765 124.425 697.533 122.42 699.069 120.884C699.24 120.713 699.325 120.585 699.325 120.5H699.453L699.069 120.116C697.533 118.58 696.765 116.575 696.765 114.1C696.765 111.625 697.533 109.62 699.069 108.084C699.24 107.913 699.325 107.785 699.325 107.7H699.453L699.069 107.316C697.533 105.78 696.765 103.775 696.765 101.3C696.765 98.8253 697.618 96.7347 699.325 95.028C701.117 93.236 703.25 92.34 705.725 92.34C708.2 92.34 710.29 93.236 711.997 95.028C713.789 96.7347 714.685 98.8253 714.685 101.3C714.685 102.495 714.429 103.647 713.917 104.756C713.405 105.865 712.765 106.847 711.997 107.7L712.253 107.956C713.874 109.577 714.685 111.625 714.685 114.1C714.685 115.295 714.429 116.447 713.917 117.556C713.405 118.665 712.765 119.647 711.997 120.5L712.253 120.756C713.874 122.377 714.685 124.425 714.685 126.9C714.685 128.095 714.429 129.247 713.917 130.356C713.405 131.465 712.765 132.447 711.997 133.3L712.125 133.428C713.746 131.636 715.88 130.74 718.525 130.74C721.256 130.74 723.389 131.551 724.925 133.172C725.693 132.489 726.632 131.935 727.741 131.508C728.936 130.996 730.13 130.74 731.325 130.74C733.8 130.74 735.933 131.636 737.725 133.428C739.346 131.636 741.48 130.74 744.125 130.74C746.514 130.74 748.52 131.551 750.141 133.172C750.056 133.172 750.013 133.215 750.013 133.3C750.013 133.385 750.141 133.428 750.397 133.428H750.525V133.3H750.653L750.269 132.916C748.733 131.38 747.965 129.375 747.965 126.9C747.965 124.425 748.733 122.42 750.269 120.884C750.44 120.713 750.525 120.585 750.525 120.5H750.653L750.269 120.116C748.733 118.58 747.965 116.575 747.965 114.1C747.965 111.625 748.733 109.62 750.269 108.084C750.44 107.913 750.525 107.785 750.525 107.7H750.653L750.397 107.444C748.776 105.823 747.965 103.775 747.965 101.3C747.965 98.8253 748.818 96.7347 750.525 95.028C752.317 93.236 754.45 92.34 756.925 92.34C759.4 92.34 761.49 93.236 763.197 95.028C764.989 96.7347 765.885 98.8253 765.885 101.3C765.885 102.495 765.629 103.647 765.117 104.756C764.605 105.865 763.965 106.847 763.197 107.7L763.453 107.956C765.074 109.577 765.885 111.625 765.885 114.1C765.885 115.295 765.629 116.447 765.117 117.556C764.605 118.665 763.965 119.647 763.197 120.5L763.453 120.756C765.074 122.377 765.885 124.425 765.885 126.9C765.885 128.095 765.629 129.247 765.117 130.356C764.605 131.465 763.965 132.447 763.197 133.3L763.453 133.556C765.074 135.177 765.885 137.225 765.885 139.7C765.885 140.895 765.629 142.047 765.117 143.156C764.605 144.265 763.965 145.247 763.197 146.1L763.453 146.356C765.074 147.977 765.885 150.025 765.885 152.5C765.885 153.695 765.629 154.847 765.117 155.956C764.605 157.065 763.965 158.047 763.197 158.9L763.453 159.156C765.074 160.777 765.885 162.825 765.885 165.3C765.885 166.495 765.629 167.647 765.117 168.756C764.605 169.865 763.965 170.847 763.197 171.7L763.453 171.956C765.074 173.577 765.885 175.625 765.885 178.1C765.885 180.575 764.989 182.708 763.197 184.5C761.49 186.207 759.4 187.06 756.925 187.06C754.45 187.06 752.317 186.207 750.525 184.5C748.818 182.708 747.965 180.575 747.965 178.1C747.965 175.625 748.733 173.62 750.269 172.084C750.44 171.913 750.525 171.785 750.525 171.7H750.653L750.397 171.444C748.776 169.823 747.965 167.775 747.965 165.3C747.965 162.825 748.733 160.82 750.269 159.284C750.44 159.113 750.525 158.985 750.525 158.9H750.653L750.397 158.644C748.776 157.023 747.965 154.975 747.965 152.5ZM724.541 146.356C724.626 146.527 724.712 146.655 724.797 146.74C724.882 146.74 724.925 146.569 724.925 146.228L724.797 146.1L724.541 146.356ZM737.341 146.356C737.426 146.527 737.512 146.655 737.597 146.74C737.682 146.74 737.725 146.569 737.725 146.228L737.597 146.1L737.341 146.356ZM750.141 133.172C750.312 133.172 750.397 133.257 750.397 133.428H750.525V133.3C750.525 132.959 750.397 132.916 750.141 133.172ZM750.141 146.356C750.312 146.271 750.397 146.228 750.397 146.228V146.1L750.141 146.356Z" fill="#73D065"/>
</svg>
