<svg width="84" height="84" viewBox="0 0 84 84" fill="none" xmlns="http://www.w3.org/2000/svg">
<path d="M42.0007 7.875C41.0242 7.875 40.0507 8.44303 39.6884 9.58228L35.146 23.8711L22.9848 16.7959C22.5622 16.5281 22.1181 16.4062 21.6928 16.4062C20.1047 16.4062 18.7361 18.0623 19.437 19.8105L24.6408 32.8125L9.97775 34.8684C7.63888 35.1965 7.08595 38.372 9.17282 39.4929L22.2568 46.5117L11.3569 57.7859C9.90265 59.4186 11.1306 61.908 13.1308 61.908C13.3067 61.908 13.4879 61.8884 13.6743 61.8464L29.4294 58.5601L28.8808 73.5615C28.8231 75.1155 30.0635 76.1199 31.3366 76.1199C32.0244 76.1199 32.7219 75.8304 33.2285 75.1663L42.0007 63.3127L50.778 75.1663C51.2847 75.8278 51.9821 76.1199 52.6699 76.1199C53.9404 76.1199 55.1783 75.1155 55.1206 73.5615L54.572 58.5601L70.4348 61.8464C70.6212 61.8858 70.805 61.908 70.9782 61.908C72.9837 61.908 74.2064 59.416 72.7522 57.7859L61.7446 46.5117L74.8337 39.4929C76.918 38.3747 76.3625 35.2017 74.0236 34.8735L59.3606 32.8125L64.5644 19.8105C65.2653 18.0623 63.8967 16.4062 62.3086 16.4062C61.8807 16.4062 61.4392 16.5281 61.0166 16.7959L48.8606 23.8711L44.3181 9.58228C43.9532 8.44565 42.9772 7.875 42.0007 7.875ZM42.0007 28.5264L44.2617 35.6375L51.3779 31.4949L48.2607 39.293L56.4433 40.4363L48.6298 44.6301L54.2849 50.4185L46.5996 48.7932L46.8867 56.7195L42.0007 50.3569L37.1198 56.7246L37.4121 48.7778L29.6858 50.4236L35.3152 44.5994L27.5632 40.4414L35.7407 39.293L32.6235 31.5L39.7397 35.6375L42.0007 28.5264Z" fill="white"/>
</svg>
