<svg width="660" height="660" viewBox="0 0 660 660" fill="none" xmlns="http://www.w3.org/2000/svg">
<path d="M230.294 10.1548C243.372 6.08942 257.36 10.5961 272.187 23.1554C287.017 35.7178 302.283 56.0297 317.601 82.5596L319.979 86.6781L322.024 82.3843C335.195 54.7254 348.806 33.2686 362.596 19.5721C376.382 5.87922 389.97 0.279465 403.328 3.29745C416.686 6.3154 426.547 17.2124 433.108 35.5017C439.67 53.7957 442.735 79.0194 442.736 109.653L442.736 114.407L446.654 111.712C471.888 94.3449 494.404 82.57 513.194 77.6038C531.979 72.639 546.546 74.583 556.605 83.8755C566.665 93.1682 569.756 107.536 566.293 126.656C562.828 145.78 552.871 169.156 537.555 195.686L535.178 199.805L539.918 199.429C570.455 197.006 595.841 198.066 614.596 203.161C633.347 208.254 644.99 217.221 649.055 230.298C653.12 243.375 648.614 257.363 636.055 272.189C623.494 287.019 603.183 302.285 576.655 317.602L572.537 319.98L576.831 322.024C604.489 335.194 625.944 348.806 639.64 362.596C653.332 376.382 658.932 389.97 655.914 403.327C652.896 416.685 641.999 426.546 623.71 433.107C605.416 439.669 580.193 442.735 549.56 442.736L544.804 442.735L547.5 446.653C564.867 471.888 576.642 494.403 581.609 513.193C586.573 531.978 584.628 546.545 575.336 556.605C566.043 566.664 551.676 569.755 532.556 566.292C513.431 562.827 490.054 552.87 463.523 537.554L459.404 535.176L459.78 539.917C462.203 570.455 461.144 595.842 456.05 614.599C450.957 633.35 441.989 644.993 428.912 649.059C415.835 653.124 401.847 648.617 387.021 636.059C372.191 623.497 356.925 603.187 341.608 576.659L339.23 572.541L337.185 576.835C324.015 604.491 310.405 625.946 296.615 639.641C282.829 653.333 269.242 658.931 255.884 655.913C242.526 652.895 232.665 641.998 226.105 623.709C219.542 605.415 216.477 580.192 216.476 549.559L216.476 544.803L212.559 547.5C187.324 564.867 164.809 576.642 146.019 581.608C127.233 586.573 112.666 584.628 102.607 575.335C92.5477 566.043 89.4563 551.675 92.9192 532.556C96.3831 513.432 106.341 490.056 121.656 463.527L124.033 459.408L119.293 459.784C88.7548 462.207 63.3676 461.148 44.6112 456.054C25.8596 450.961 14.2165 441.993 10.1511 428.916C6.08561 415.838 10.5924 401.85 23.1516 387.023C35.714 372.193 56.0261 356.927 82.5559 341.609L86.6731 339.231L82.3805 337.186C54.723 324.016 33.2675 310.405 19.5717 296.615C5.87942 282.829 0.280367 269.241 3.2983 255.883C6.31639 242.525 17.2136 232.665 35.5028 226.105C53.7968 219.542 79.0195 216.477 109.653 216.476L114.408 216.475L111.712 212.559C94.345 187.324 82.5699 164.808 77.6038 146.018C72.6389 127.233 74.5837 112.666 83.8763 102.606C93.1688 92.5472 107.536 89.456 126.654 92.9187C145.778 96.3822 169.153 106.339 195.682 121.654L199.801 124.032L199.425 119.291C197.002 88.7542 198.062 63.3682 203.157 44.6128C208.25 25.8624 217.217 14.2201 230.294 10.1548Z" stroke="#78D36A" stroke-width="5"/>
</svg>
