<svg width="700" height="54" viewBox="0 0 700 54" fill="none" xmlns="http://www.w3.org/2000/svg">
<path fill-rule="evenodd" clip-rule="evenodd" d="M418.928 24.664C325.771 25.6231 232.567 29.4278 139.815 36.2287C95.7182 39.4627 44.5082 39.0584 1.73951 50.0841C-0.391546 50.639 0.0143065 52.3035 0.0604332 52.47C0.152687 52.8108 0.54025 53.9442 2.23771 53.9997C2.42222 54.0076 3.72291 53.8491 4.22107 53.7936C16.8506 52.3669 29.434 50.7024 42.0727 49.3549C85.7086 44.6863 129.474 41.159 173.303 38.0677C231.478 33.9618 290.152 31.774 348.483 30.0619C380.412 29.1266 413.107 30.371 445.137 28.437C456.9 28.3815 468.662 28.3737 480.424 28.4054C529.595 28.556 578.711 30.1571 627.799 32.3528C643.584 33.0582 655.623 33.8191 671.075 34.3344C676.943 34.5325 686.251 34.6673 692.727 34.7545C693.677 34.7703 696.104 34.786 697.109 34.794C697.211 34.8098 697.312 34.8098 697.423 34.8098C697.81 34.8098 697.995 34.786 698.032 34.786C700.227 34.5086 700.024 32.7252 699.969 32.4557C699.96 32.4002 699.628 30.8942 697.737 30.8387C697.285 30.8228 694.046 30.8071 692.801 30.7913C686.362 30.7041 677.09 30.5693 671.251 30.3791C655.826 29.8639 643.796 29.1029 628.039 28.3975C578.877 26.2019 529.688 24.5928 480.443 24.4422C474.428 24.4263 468.404 24.4184 462.389 24.4263C462.186 23.9745 461.734 23.4672 460.738 23.2453C459.806 23.0392 453.136 22.8569 450.562 22.6746C431.512 21.3271 432.074 21.3905 411.114 20.2887C379.37 18.6163 374.536 18.2356 341.518 17.5302C281.544 16.2461 221.543 16.3493 161.559 16.4761C131.946 16.5474 100.238 18.2674 70.1731 15.0572C80.0811 14.0585 90.026 13.3293 99.9525 12.497C133.846 9.65933 167.768 7.89958 201.8 6.66305C283.435 3.69857 365.2 2.51762 446.807 6.5601C429.436 6.70278 412.074 7.03559 394.702 7.2496C323.99 8.13736 252.595 7.47161 182.03 12.0769C180.767 12.1641 179.816 13.1152 179.909 14.2011C180.001 15.295 181.117 16.1114 182.381 16.0322C252.853 11.4269 324.147 12.1006 394.767 11.2128C421.004 10.8878 447.232 10.3013 473.468 10.4757C482.472 10.5391 491.476 10.8245 500.48 10.9196C502.261 10.9434 506.846 11.2446 507.501 11.1178C508.949 10.8404 509.263 9.92085 509.355 9.46904C509.401 9.19955 509.549 7.64596 507.335 7.09111C492.223 3.30228 464.335 3.47666 449.649 2.73157C367.036 -1.46944 284.257 -0.296356 201.607 2.69984C167.491 3.94429 133.487 5.71199 99.5005 8.55758C87.6275 9.54839 75.7268 10.4044 63.8999 11.7202C61.9903 11.9342 57.7005 12.2434 55.6248 12.5684C54.7576 12.7032 54.1302 12.8933 53.8535 13.028C52.7741 13.5512 52.5804 14.3121 52.5804 14.8273C52.5712 15.2236 52.7649 16.6187 55.0251 16.9992C89.4633 22.7934 126.937 20.5186 161.569 20.4393C221.515 20.3125 281.47 20.2093 341.408 21.4934C374.342 22.1988 379.158 22.5716 410.838 24.244C413.965 24.4026 416.613 24.5451 418.928 24.664Z" fill="white"/>
</svg>
