<svg width="75" height="74" viewBox="0 0 75 74" fill="none" xmlns="http://www.w3.org/2000/svg">
<path d="M63.709 36.5256C65.9516 35.1024 67.8197 33.6654 69.1328 32.2796C76.2942 24.7091 76.0768 12.6491 68.6471 5.34272C61.2174 -1.96365 49.3889 -1.74953 42.2275 5.82097C40.5295 7.61594 38.7729 10.3832 37.0802 13.7138C35.2686 10.4489 33.4132 7.74475 31.6516 6.01241C24.2219 -1.29395 12.3935 -1.07984 5.23202 6.49066C-1.92944 14.0612 -1.71199 26.1212 5.7177 33.4275C7.07997 34.7672 8.99858 36.1333 11.291 37.4744C9.04842 38.8976 7.18035 40.3346 5.86723 41.7204C-1.29423 49.2909 -1.07678 61.3509 6.35291 68.6573C13.7826 75.9636 25.6111 75.7495 32.7725 68.179C34.4705 66.3841 36.2272 63.6168 37.9199 60.2862C39.7316 63.551 41.5867 66.253 43.3484 67.9876C50.7781 75.294 62.6065 75.0798 69.768 67.5093C76.9294 59.9388 76.712 47.8788 69.2823 40.5724C67.92 39.2328 66.0014 37.8667 63.709 36.5256ZM57.4265 50.584C64.1466 57.1925 63.2313 59.0122 61.5883 60.749C59.9453 62.4859 58.1949 63.4842 51.4749 56.8757C45.4576 50.9561 38.8542 41.7494 37.5055 37.9254C36.249 41.8331 30.0189 51.2058 24.2475 57.3069C17.77 64.1543 15.9847 63.2199 14.2802 61.5437C12.5756 59.8674 11.5953 58.0821 18.0728 51.2347C23.8442 45.1337 32.7856 38.4451 36.586 37.0257C32.7869 35.785 23.5267 29.3939 17.5118 23.4765C10.7917 16.868 11.707 15.0483 13.35 13.3115C14.993 11.5747 16.7435 10.5763 23.4635 17.1848C29.5446 23.165 36.2216 32.4777 37.4775 36.2485C38.5415 32.4814 44.9173 22.8593 50.8119 16.628C57.2893 9.78062 59.0746 10.715 60.7792 12.3912C62.4837 14.0675 63.464 15.8528 56.9866 22.7002C51.0942 28.9291 41.8732 35.7713 38.2351 36.9935C41.9718 38.1325 51.3477 44.6038 57.4288 50.584L57.4265 50.584Z" fill="#78D36A"/>
</svg>
