<svg width="36" height="41" viewBox="0 0 36 41" fill="none" xmlns="http://www.w3.org/2000/svg">
<path d="M24.4286 10.2049C24.4286 7.95941 23.1429 5.87433 21.2143 4.67139C19.2054 3.54866 16.7143 3.54866 14.7857 4.67139C12.7768 5.87433 11.5714 7.95941 11.5714 10.2049C11.5714 12.5306 12.7768 14.6156 14.7857 15.8186C16.7143 16.9413 19.2054 16.9413 21.2143 15.8186C23.1429 14.6156 24.4286 12.5306 24.4286 10.2049ZM7.71429 10.2049C7.71429 6.59609 9.64286 3.22787 12.8571 1.38337C15.9911 -0.461125 19.9286 -0.461125 23.1429 1.38337C26.2768 3.22787 28.2857 6.59609 28.2857 10.2049C28.2857 13.8939 26.2768 17.2621 23.1429 19.1066C19.9286 20.9511 15.9911 20.9511 12.8571 19.1066C9.64286 17.2621 7.71429 13.8939 7.71429 10.2049ZM3.9375 37.1506H31.9821C31.2589 32.0983 26.9196 28.1687 21.6161 28.1687H14.3036C9 28.1687 4.66071 32.0983 3.9375 37.1506ZM0 38.6743C0 30.735 6.34821 24.3193 14.3036 24.3193H21.6161C29.5714 24.3193 36 30.735 36 38.6743C36 39.9575 34.875 41 33.5893 41H2.33036C1.04464 41 0 39.9575 0 38.6743Z" fill="#78D36A"/>
</svg>
