<svg width="84" height="84" viewBox="0 0 84 84" fill="none" xmlns="http://www.w3.org/2000/svg">
<path d="M59.0625 16.125C68.2626 16.125 75.75 23.6124 75.75 32.8125C75.75 35.3576 74.5587 38.0132 73.1006 40.248C71.6794 42.4262 70.226 43.8694 70.166 43.9287L70.1611 43.9346L70.1553 43.9395L42 72.0947L13.8232 43.918L13.8174 43.9131L13.541 43.626C13.0461 43.0989 11.964 41.8808 10.8984 40.2471C9.44195 38.0139 8.25 35.3579 8.25 32.8125C8.25 23.6124 15.7374 16.125 24.9375 16.125C31.3716 16.125 37.0466 20.2088 39.999 22.8516L42 24.6436L44.001 22.8516C46.9534 20.2088 52.6284 16.125 59.0625 16.125Z" stroke="white" stroke-width="6"/>
</svg>
