<svg width="413" height="175" viewBox="0 0 413 175" fill="none" xmlns="http://www.w3.org/2000/svg">
<path d="M13.84 50.8C13.84 48.3253 14.6933 46.2347 16.4 44.528C18.192 42.736 20.3253 41.84 22.8 41.84C25.5307 41.84 27.664 42.6507 29.2 44.272C29.968 43.5893 30.9067 43.0347 32.016 42.608C33.2107 42.096 34.4053 41.84 35.6 41.84C36.7947 41.84 37.9467 42.096 39.056 42.608C40.1653 43.12 41.104 43.76 41.872 44.528V44.656L42 44.528C43.792 42.736 45.9253 41.84 48.4 41.84C51.1307 41.84 53.264 42.6507 54.8 44.272C55.568 43.5893 56.5067 43.0347 57.616 42.608C58.8107 42.096 60.0053 41.84 61.2 41.84C63.6747 41.84 65.7653 42.736 67.472 44.528C69.264 46.2347 70.16 48.3253 70.16 50.8C70.16 53.2747 69.264 55.408 67.472 57.2C65.7653 58.9067 63.6747 59.76 61.2 59.76C58.64 59.76 56.592 58.992 55.056 57.456C54.8853 57.3707 54.8 57.328 54.8 57.328V57.072L54.672 57.2C54.5013 57.2 54.416 57.2853 54.416 57.456C52.7093 58.992 50.704 59.76 48.4 59.76C45.84 59.76 43.792 58.992 42.256 57.456C42.0853 57.3707 42 57.328 42 57.328V57.072L41.872 57.2C41.7013 57.2 41.616 57.2853 41.616 57.456C39.9093 58.992 37.904 59.76 35.6 59.76C33.04 59.76 30.992 58.992 29.456 57.456C29.2853 57.3707 29.2 57.328 29.2 57.328V57.072L29.072 57.2C28.9013 57.2 28.8587 57.328 28.944 57.584C29.1147 57.84 29.2 57.7547 29.2 57.328L29.328 57.456C30.9493 59.0773 31.76 61.1253 31.76 63.6C31.76 64.7947 31.504 65.9467 30.992 67.056C30.48 68.1653 29.84 69.1467 29.072 70L29.328 70.256C30.9493 71.8773 31.76 73.9253 31.76 76.4C31.76 79.0453 30.8213 81.2213 28.944 82.928V83.056C30.6507 81.1787 32.8693 80.24 35.6 80.24C38.0747 80.24 40.208 81.136 42 82.928C43.6213 81.136 45.7547 80.24 48.4 80.24C51.1307 80.24 53.264 81.0507 54.8 82.672C55.568 81.9893 56.5067 81.4347 57.616 81.008C58.8107 80.496 60.0053 80.24 61.2 80.24C63.6747 80.24 65.7653 81.136 67.472 82.928C69.264 84.6347 70.16 86.7253 70.16 89.2C70.16 91.6747 69.264 93.808 67.472 95.6C65.7653 97.3067 63.6747 98.16 61.2 98.16C58.64 98.16 56.592 97.392 55.056 95.856C54.8853 95.7707 54.8 95.728 54.8 95.728V95.472L54.672 95.6C54.5013 95.6 54.416 95.6853 54.416 95.856C53.5627 96.7093 52.624 97.3067 51.6 97.648C50.576 97.9893 49.5093 98.16 48.4 98.16C45.84 98.16 43.792 97.392 42.256 95.856C42.0853 95.7707 42 95.728 42 95.728V95.472L41.872 95.6C41.7013 95.6 41.616 95.6853 41.616 95.856C39.9093 97.392 37.904 98.16 35.6 98.16C33.04 98.16 30.992 97.392 29.456 95.856C29.2853 95.7707 29.2 95.728 29.2 95.728V95.472L29.072 95.6C28.9013 95.6 28.8587 95.728 28.944 95.984C29.1147 96.24 29.2 96.1547 29.2 95.728L29.328 95.856C30.9493 97.4773 31.76 99.5253 31.76 102C31.76 103.195 31.504 104.347 30.992 105.456C30.48 106.565 29.84 107.547 29.072 108.4L29.328 108.656C30.9493 110.277 31.76 112.325 31.76 114.8C31.76 115.995 31.504 117.147 30.992 118.256C30.48 119.365 29.84 120.347 29.072 121.2L29.2 121.328C30.8213 119.536 32.9547 118.64 35.6 118.64C38.3307 118.64 40.464 119.451 42 121.072C42.768 120.389 43.7067 119.835 44.816 119.408C46.0107 118.896 47.2053 118.64 48.4 118.64C50.8747 118.64 52.9227 119.451 54.544 121.072C54.6293 121.157 54.7147 121.2 54.8 121.2V121.328C54.9707 121.328 55.056 121.243 55.056 121.072C56.6773 119.451 58.7253 118.64 61.2 118.64C63.6747 118.64 65.7653 119.536 67.472 121.328C69.264 123.035 70.16 125.125 70.16 127.6C70.16 130.075 69.264 132.208 67.472 134C65.7653 135.707 63.6747 136.56 61.2 136.56C58.64 136.56 56.592 135.792 55.056 134.256C54.8853 134.085 54.8 134 54.8 134V133.872L54.672 134C54.5013 134 54.416 134.043 54.416 134.128V134.256C52.7093 135.792 50.704 136.56 48.4 136.56C45.84 136.56 43.792 135.792 42.256 134.256C42.0853 134.085 42 134 42 134V133.872L41.872 134C41.7013 134 41.616 134.043 41.616 134.128C39.9947 135.749 37.9893 136.56 35.6 136.56C33.04 136.56 30.992 135.792 29.456 134.256C29.2853 134.085 29.2 134 29.2 134V133.872L29.072 134C28.9013 134 28.816 134.043 28.816 134.128V134.256C27.1093 135.792 25.104 136.56 22.8 136.56C20.3253 136.56 18.192 135.707 16.4 134C14.6933 132.208 13.84 130.075 13.84 127.6C13.84 125.125 14.608 123.12 16.144 121.584C16.3147 121.413 16.4 121.285 16.4 121.2H16.528L16.144 120.816C14.608 119.28 13.84 117.275 13.84 114.8C13.84 112.325 14.608 110.32 16.144 108.784C16.3147 108.613 16.4 108.485 16.4 108.4H16.528L16.144 108.016C14.608 106.48 13.84 104.475 13.84 102C13.84 99.5253 14.608 97.52 16.144 95.984C16.3147 95.8133 16.4 95.6853 16.4 95.6H16.528L16.272 95.344C14.6507 93.7227 13.84 91.6747 13.84 89.2C13.84 86.7253 14.608 84.72 16.144 83.184C16.3147 83.0133 16.4 82.8853 16.4 82.8H16.528L16.144 82.416C14.608 80.88 13.84 78.8747 13.84 76.4C13.84 73.9253 14.608 71.92 16.144 70.384C16.3147 70.2133 16.4 70.0853 16.4 70H16.528L16.144 69.616C14.608 68.08 13.84 66.0747 13.84 63.6C13.84 61.1253 14.608 59.12 16.144 57.584C16.3147 57.4133 16.4 57.2853 16.4 57.2H16.528L16.144 56.816C14.608 55.28 13.84 53.2747 13.84 50.8ZM65.04 114.8C65.04 112.325 65.808 110.32 67.344 108.784C67.5147 108.613 67.6 108.485 67.6 108.4H67.728L67.472 108.144C65.8507 106.523 65.04 104.475 65.04 102C65.04 99.5253 65.8933 97.4347 67.6 95.728C69.392 93.936 71.5253 93.04 74 93.04C76.4747 93.04 78.5653 93.936 80.272 95.728C82.064 97.4347 82.96 99.5253 82.96 102C82.96 103.195 82.704 104.347 82.192 105.456C81.68 106.565 81.04 107.547 80.272 108.4L80.528 108.656C82.1493 110.277 82.96 112.325 82.96 114.8C82.96 117.275 82.064 119.408 80.272 121.2C78.5653 122.907 76.4747 123.76 74 123.76C71.5253 123.76 69.392 122.907 67.6 121.2C65.8933 119.408 65.04 117.275 65.04 114.8ZM54.416 57.456C54.5013 57.6267 54.5867 57.7547 54.672 57.84C54.7573 57.84 54.8 57.6693 54.8 57.328L54.672 57.2L54.416 57.456ZM41.616 95.856C41.7013 96.0267 41.7867 96.1547 41.872 96.24C41.9573 96.24 42 96.0693 42 95.728L41.872 95.6L41.616 95.856ZM41.616 57.456C41.7013 57.6267 41.7867 57.7547 41.872 57.84C41.9573 57.84 42 57.6693 42 57.328L41.872 57.2L41.616 57.456ZM54.416 95.856C54.5013 96.0267 54.5867 96.1547 54.672 96.24C54.7573 96.24 54.8 96.0693 54.8 95.728L54.672 95.6L54.416 95.856ZM28.816 134.128C28.9013 134.299 28.9867 134.384 29.072 134.384C29.1573 134.469 29.2 134.341 29.2 134H29.072L28.816 134.128ZM54.416 134.128C54.5013 134.299 54.5867 134.384 54.672 134.384C54.7573 134.469 54.8 134.341 54.8 134H54.672L54.416 134.128ZM55.056 121.072C54.9707 120.901 54.8853 120.773 54.8 120.688C54.7147 120.603 54.7147 120.773 54.8 121.2V121.328L55.056 121.072ZM41.616 134.128C41.7013 134.299 41.7867 134.384 41.872 134.384C41.9573 134.469 42 134.341 42 134H41.872L41.744 134.128H41.616ZM141.79 63.6C141.79 61.1253 142.643 59.0347 144.35 57.328C144.265 57.2427 144.265 57.2427 144.35 57.328C144.435 57.328 144.435 57.2853 144.35 57.2C143.411 56.2613 142.729 55.28 142.302 54.256C141.961 53.1467 141.79 52.0373 141.79 50.928C141.79 48.624 142.601 46.5333 144.222 44.656C145.843 42.7787 148.019 41.84 150.75 41.84C153.225 41.84 155.315 42.736 157.022 44.528C158.814 46.2347 159.71 48.3253 159.71 50.8C159.71 53.2747 158.814 55.408 157.022 57.2L156.894 57.328C156.638 57.584 156.595 57.7547 156.766 57.84C156.937 57.84 157.107 57.7547 157.278 57.584C158.899 59.376 159.71 61.3813 159.71 63.6C159.71 66.0747 158.814 68.208 157.022 70L156.894 70.128C156.638 70.384 156.595 70.5547 156.766 70.64C156.937 70.64 157.107 70.5547 157.278 70.384C158.899 72.176 159.71 74.1813 159.71 76.4C159.71 78.8747 158.814 81.008 157.022 82.8C155.315 84.5067 153.225 85.36 150.75 85.36C148.019 85.36 145.843 84.4213 144.222 82.544C142.601 80.6667 141.79 78.576 141.79 76.272C141.79 73.8827 142.643 71.8347 144.35 70.128L144.222 70C142.601 68.208 141.79 66.0747 141.79 63.6ZM90.59 63.6C90.59 61.1253 91.4433 59.0347 93.15 57.328C93.0647 57.2427 93.0647 57.2427 93.15 57.328C93.2353 57.328 93.2353 57.2853 93.15 57.2C92.2113 56.2613 91.5287 55.28 91.102 54.256C90.7607 53.1467 90.59 52.0373 90.59 50.928C90.59 48.624 91.4007 46.5333 93.022 44.656C94.6433 42.7787 96.8193 41.84 99.55 41.84C102.025 41.84 104.115 42.736 105.822 44.528C107.614 46.2347 108.51 48.3253 108.51 50.8C108.51 53.2747 107.614 55.408 105.822 57.2L105.694 57.328C105.438 57.584 105.395 57.7547 105.566 57.84C105.737 57.84 105.907 57.7547 106.078 57.584C107.699 59.376 108.51 61.3813 108.51 63.6C108.51 66.0747 107.614 68.208 105.822 70L105.694 70.128C105.438 70.384 105.395 70.5547 105.566 70.64C105.737 70.64 105.907 70.5547 106.078 70.384C107.699 72.176 108.51 74.1813 108.51 76.4C108.51 78.8747 107.614 81.008 105.822 82.8C104.115 84.5067 102.025 85.36 99.55 85.36C96.8193 85.36 94.6433 84.4213 93.022 82.544C91.4007 80.6667 90.59 78.576 90.59 76.272C90.59 73.8827 91.4433 71.8347 93.15 70.128L93.022 70C91.4007 68.208 90.59 66.0747 90.59 63.6ZM103.39 89.2C103.39 86.7253 104.243 84.6347 105.95 82.928C107.742 81.136 109.875 80.24 112.35 80.24C114.825 80.24 116.915 81.136 118.622 82.928C120.414 84.6347 121.31 86.7253 121.31 89.2C121.31 91.6747 120.414 93.808 118.622 95.6C116.915 97.3067 114.825 98.16 112.35 98.16C109.875 98.16 107.742 97.3067 105.95 95.6C104.243 93.808 103.39 91.6747 103.39 89.2ZM128.99 89.2C128.99 86.7253 129.843 84.6347 131.55 82.928C133.342 81.136 135.475 80.24 137.95 80.24C140.425 80.24 142.515 81.136 144.222 82.928C146.014 84.6347 146.91 86.7253 146.91 89.2C146.91 91.6747 146.014 93.808 144.222 95.6C142.515 97.3067 140.425 98.16 137.95 98.16C135.475 98.16 133.342 97.3067 131.55 95.6C129.843 93.808 128.99 91.6747 128.99 89.2ZM90.59 127.6C90.59 125.125 91.4433 123.035 93.15 121.328C94.942 119.536 97.0753 118.64 99.55 118.64C102.025 118.64 104.115 119.536 105.822 121.328C107.614 123.035 108.51 125.125 108.51 127.6C108.51 130.075 107.614 132.208 105.822 134C104.115 135.707 102.025 136.56 99.55 136.56C97.0753 136.56 94.942 135.707 93.15 134C91.4433 132.208 90.59 130.075 90.59 127.6ZM116.19 102C116.19 99.5253 117.043 97.4347 118.75 95.728C120.542 93.936 122.675 93.04 125.15 93.04C127.625 93.04 129.715 93.936 131.422 95.728C133.214 97.4347 134.11 99.5253 134.11 102C134.11 104.475 133.214 106.608 131.422 108.4C129.715 110.107 127.625 110.96 125.15 110.96C122.675 110.96 120.542 110.107 118.75 108.4C117.043 106.608 116.19 104.475 116.19 102ZM103.39 114.8C103.39 112.325 104.243 110.235 105.95 108.528C107.742 106.736 109.875 105.84 112.35 105.84C114.825 105.84 116.915 106.736 118.622 108.528C120.414 110.235 121.31 112.325 121.31 114.8C121.31 117.275 120.414 119.408 118.622 121.2C116.915 122.907 114.825 123.76 112.35 123.76C109.875 123.76 107.742 122.907 105.95 121.2C104.243 119.408 103.39 117.275 103.39 114.8ZM157.278 57.584C157.449 57.4133 157.363 57.328 157.022 57.328C157.022 57.4987 157.107 57.584 157.278 57.584ZM106.078 57.584C106.249 57.4133 106.163 57.328 105.822 57.328C105.822 57.4987 105.907 57.584 106.078 57.584ZM157.278 70.384C157.449 70.2133 157.363 70.128 157.022 70.128C157.022 70.2987 157.107 70.384 157.278 70.384ZM106.078 70.384C106.249 70.2133 106.163 70.128 105.822 70.128C105.822 70.2987 105.907 70.384 106.078 70.384ZM192.94 63.6C192.94 61.1253 193.708 59.12 195.244 57.584C195.5 57.328 195.585 57.2 195.5 57.2C195.415 57.1147 195.287 57.1147 195.116 57.2C195.031 57.2 194.945 57.2427 194.86 57.328C194.775 57.4133 194.86 57.456 195.116 57.456C193.409 58.992 191.404 59.76 189.1 59.76C186.54 59.76 184.492 58.992 182.956 57.456C182.785 57.3707 182.7 57.328 182.7 57.328V57.072L182.572 57.2C182.401 57.2 182.316 57.2853 182.316 57.456C181.463 58.3093 180.524 58.9067 179.5 59.248C178.476 59.5893 177.409 59.76 176.3 59.76C173.825 59.76 171.692 58.9067 169.9 57.2C168.193 55.408 167.34 53.2747 167.34 50.8C167.34 48.3253 168.193 46.2347 169.9 44.528C171.692 42.736 173.825 41.84 176.3 41.84C179.031 41.84 181.164 42.6507 182.7 44.272C183.468 43.5893 184.407 43.0347 185.516 42.608C186.711 42.096 187.905 41.84 189.1 41.84C191.575 41.84 193.708 42.736 195.5 44.528C197.121 42.736 199.255 41.84 201.9 41.84C203.095 41.84 204.247 42.096 205.356 42.608C206.465 43.12 207.404 43.76 208.172 44.528V44.656L208.3 44.528C210.092 42.736 212.225 41.84 214.7 41.84C217.431 41.84 219.564 42.6507 221.1 44.272C221.868 43.5893 222.807 43.0347 223.916 42.608C225.111 42.096 226.305 41.84 227.5 41.84C229.975 41.84 232.065 42.736 233.772 44.528C235.564 46.2347 236.46 48.3253 236.46 50.8C236.46 53.2747 235.564 55.408 233.772 57.2C232.065 58.9067 229.975 59.76 227.5 59.76C224.94 59.76 222.892 58.992 221.356 57.456C221.185 57.3707 221.1 57.328 221.1 57.328V57.072L220.972 57.2C220.801 57.2 220.716 57.2853 220.716 57.456C219.009 58.992 217.004 59.76 214.7 59.76C212.14 59.76 210.092 58.992 208.556 57.456C208.385 57.3707 208.3 57.328 208.3 57.328V57.072L208.172 57.2C208.001 57.2 207.959 57.328 208.044 57.584C208.215 57.84 208.3 57.7547 208.3 57.328L208.428 57.456C210.049 59.0773 210.86 61.1253 210.86 63.6C210.86 64.7947 210.604 65.9467 210.092 67.056C209.58 68.1653 208.94 69.1467 208.172 70L208.428 70.256C210.049 71.8773 210.86 73.9253 210.86 76.4C210.86 77.5947 210.604 78.7467 210.092 79.856C209.58 80.9653 208.94 81.9467 208.172 82.8L208.428 83.056C210.049 84.6773 210.86 86.7253 210.86 89.2C210.86 90.3947 210.604 91.5467 210.092 92.656C209.58 93.7653 208.94 94.7467 208.172 95.6L208.428 95.856C210.049 97.4773 210.86 99.5253 210.86 102C210.86 103.195 210.604 104.347 210.092 105.456C209.58 106.565 208.94 107.547 208.172 108.4L208.428 108.656C210.049 110.277 210.86 112.325 210.86 114.8C210.86 115.995 210.604 117.147 210.092 118.256C209.58 119.365 208.94 120.347 208.172 121.2L208.428 121.456C210.049 123.077 210.86 125.125 210.86 127.6C210.86 130.075 209.964 132.208 208.172 134C206.465 135.707 204.375 136.56 201.9 136.56C199.425 136.56 197.292 135.707 195.5 134C193.793 132.208 192.94 130.075 192.94 127.6C192.94 125.125 193.708 123.12 195.244 121.584C195.415 121.413 195.5 121.285 195.5 121.2H195.628L195.244 120.816C193.708 119.28 192.94 117.275 192.94 114.8C192.94 112.325 193.708 110.32 195.244 108.784C195.415 108.613 195.5 108.485 195.5 108.4H195.628L195.244 108.016C193.708 106.48 192.94 104.475 192.94 102C192.94 99.5253 193.708 97.52 195.244 95.984C195.415 95.8133 195.5 95.6853 195.5 95.6H195.628L195.372 95.344C193.751 93.7227 192.94 91.6747 192.94 89.2C192.94 86.7253 193.708 84.72 195.244 83.184C195.415 83.0133 195.5 82.8853 195.5 82.8H195.628L195.372 82.544C193.751 80.9227 192.94 78.8747 192.94 76.4C192.94 73.9253 193.708 71.92 195.244 70.384C195.415 70.2133 195.5 70.0853 195.5 70H195.628L195.372 69.744C193.751 68.1227 192.94 66.0747 192.94 63.6ZM182.316 57.456C182.401 57.6267 182.487 57.7547 182.572 57.84C182.657 57.84 182.7 57.6693 182.7 57.328L182.572 57.2L182.316 57.456ZM220.716 57.456C220.801 57.6267 220.887 57.7547 220.972 57.84C221.057 57.84 221.1 57.6693 221.1 57.328L220.972 57.2L220.716 57.456ZM195.116 57.456C195.287 57.3707 195.372 57.328 195.372 57.328V57.2L195.116 57.456ZM244.09 102C244.09 99.5253 244.858 97.52 246.394 95.984C246.565 95.8133 246.65 95.6853 246.65 95.6H246.778L246.394 95.216C244.858 93.68 244.09 91.6747 244.09 89.2C244.09 86.7253 244.858 84.72 246.394 83.184C246.565 83.0133 246.65 82.8853 246.65 82.8H246.778L246.394 82.416C244.858 80.88 244.09 78.8747 244.09 76.4C244.09 73.9253 244.858 71.92 246.394 70.384C246.565 70.2133 246.65 70.0853 246.65 70H246.778L246.522 69.744C244.901 68.1227 244.09 66.0747 244.09 63.6C244.09 61.1253 244.943 59.0347 246.65 57.328C248.442 55.536 250.575 54.64 253.05 54.64C255.525 54.64 257.615 55.536 259.322 57.328C261.114 59.0347 262.01 61.1253 262.01 63.6C262.01 64.7947 261.754 65.9467 261.242 67.056C260.73 68.1653 260.09 69.1467 259.322 70L259.578 70.256C261.199 71.8773 262.01 73.9253 262.01 76.4C262.01 77.5947 261.754 78.7467 261.242 79.856C260.73 80.9653 260.09 81.9467 259.322 82.8L259.578 83.056C261.199 84.6773 262.01 86.7253 262.01 89.2C262.01 90.3947 261.754 91.5467 261.242 92.656C260.73 93.7653 260.09 94.7467 259.322 95.6L259.578 95.856C261.199 97.4773 262.01 99.5253 262.01 102C262.01 103.195 261.754 104.347 261.242 105.456C260.73 106.565 260.09 107.547 259.322 108.4L259.578 108.656C261.199 110.277 262.01 112.325 262.01 114.8C262.01 117.275 261.114 119.408 259.322 121.2C257.615 122.907 255.525 123.76 253.05 123.76C250.575 123.76 248.442 122.907 246.65 121.2C244.943 119.408 244.09 117.275 244.09 114.8C244.09 112.325 244.858 110.32 246.394 108.784C246.565 108.613 246.65 108.485 246.65 108.4H246.778L246.394 108.016C244.858 106.48 244.09 104.475 244.09 102ZM295.29 102C295.29 99.5253 296.058 97.52 297.594 95.984C297.765 95.8133 297.85 95.6853 297.85 95.6H297.978L297.594 95.216C296.058 93.68 295.29 91.6747 295.29 89.2C295.29 86.7253 296.058 84.72 297.594 83.184C297.765 83.0133 297.85 82.8853 297.85 82.8H297.978L297.594 82.416C296.058 80.88 295.29 78.8747 295.29 76.4C295.29 73.9253 296.058 71.92 297.594 70.384C297.765 70.2133 297.85 70.0853 297.85 70H297.978L297.722 69.744C296.101 68.1227 295.29 66.0747 295.29 63.6C295.29 61.1253 296.143 59.0347 297.85 57.328C299.642 55.536 301.775 54.64 304.25 54.64C306.725 54.64 308.815 55.536 310.522 57.328C312.314 59.0347 313.21 61.1253 313.21 63.6C313.21 64.7947 312.954 65.9467 312.442 67.056C311.93 68.1653 311.29 69.1467 310.522 70L310.778 70.256C312.399 71.8773 313.21 73.9253 313.21 76.4C313.21 77.5947 312.954 78.7467 312.442 79.856C311.93 80.9653 311.29 81.9467 310.522 82.8L310.778 83.056C312.399 84.6773 313.21 86.7253 313.21 89.2C313.21 90.3947 312.954 91.5467 312.442 92.656C311.93 93.7653 311.29 94.7467 310.522 95.6L310.778 95.856C312.399 97.4773 313.21 99.5253 313.21 102C313.21 103.195 312.954 104.347 312.442 105.456C311.93 106.565 311.29 107.547 310.522 108.4L310.778 108.656C312.399 110.277 313.21 112.325 313.21 114.8C313.21 117.275 312.314 119.408 310.522 121.2C308.815 122.907 306.725 123.76 304.25 123.76C301.775 123.76 299.642 122.907 297.85 121.2C296.143 119.408 295.29 117.275 295.29 114.8C295.29 112.325 296.058 110.32 297.594 108.784C297.765 108.613 297.85 108.485 297.85 108.4H297.978L297.594 108.016C296.058 106.48 295.29 104.475 295.29 102ZM256.89 127.6C256.89 125.125 257.743 123.035 259.45 121.328C261.242 119.536 263.375 118.64 265.85 118.64C268.581 118.64 270.714 119.451 272.25 121.072C273.018 120.389 273.957 119.835 275.066 119.408C276.261 118.896 277.455 118.64 278.65 118.64C281.125 118.64 283.173 119.451 284.794 121.072C284.879 121.157 284.965 121.2 285.05 121.2V121.328C285.221 121.328 285.306 121.243 285.306 121.072C286.927 119.451 288.975 118.64 291.45 118.64C293.925 118.64 296.015 119.536 297.722 121.328C299.514 123.035 300.41 125.125 300.41 127.6C300.41 130.075 299.514 132.208 297.722 134C296.015 135.707 293.925 136.56 291.45 136.56C288.89 136.56 286.842 135.792 285.306 134.256C285.135 134.085 285.05 134 285.05 134V133.872L284.922 134C284.751 134 284.666 134.043 284.666 134.128V134.256C282.959 135.792 280.954 136.56 278.65 136.56C276.09 136.56 274.042 135.792 272.506 134.256C272.335 134.085 272.25 134 272.25 134V133.872L272.122 134C271.951 134 271.866 134.043 271.866 134.128V134.256C270.159 135.792 268.154 136.56 265.85 136.56C263.375 136.56 261.242 135.707 259.45 134C257.743 132.208 256.89 130.075 256.89 127.6ZM256.89 50.8C256.89 48.3253 257.743 46.2347 259.45 44.528C261.242 42.736 263.375 41.84 265.85 41.84C268.325 41.84 270.373 42.6507 271.994 44.272C272.079 44.3573 272.165 44.4 272.25 44.4V44.528C272.421 44.528 272.506 44.4427 272.506 44.272C274.127 42.6507 276.175 41.84 278.65 41.84C281.125 41.84 283.258 42.736 285.05 44.528C286.671 42.736 288.805 41.84 291.45 41.84C293.925 41.84 296.015 42.736 297.722 44.528C299.514 46.2347 300.41 48.3253 300.41 50.8C300.41 53.2747 299.514 55.408 297.722 57.2C296.015 58.9067 293.925 59.76 291.45 59.76C288.89 59.76 286.842 58.992 285.306 57.456C285.135 57.3707 285.05 57.328 285.05 57.328V57.072L284.922 57.2C284.751 57.2 284.666 57.2853 284.666 57.456C282.959 58.992 280.954 59.76 278.65 59.76C276.09 59.76 274.042 58.992 272.506 57.456C272.335 57.3707 272.25 57.328 272.25 57.328V57.072L272.122 57.2C271.951 57.2 271.866 57.2853 271.866 57.456C270.159 58.992 268.154 59.76 265.85 59.76C263.375 59.76 261.242 58.9067 259.45 57.2C257.743 55.408 256.89 53.2747 256.89 50.8ZM284.666 57.456C284.751 57.6267 284.837 57.7547 284.922 57.84C285.007 57.84 285.05 57.6693 285.05 57.328L284.922 57.2L284.666 57.456ZM271.866 57.456C271.951 57.6267 272.037 57.7547 272.122 57.84C272.207 57.84 272.25 57.6693 272.25 57.328L272.122 57.2L271.866 57.456ZM271.866 134.128C271.951 134.299 272.037 134.384 272.122 134.384C272.207 134.469 272.25 134.341 272.25 134H272.122L271.866 134.128ZM285.306 121.072C285.221 120.901 285.135 120.773 285.05 120.688C284.965 120.603 284.965 120.773 285.05 121.2V121.328L285.306 121.072ZM272.506 44.272C272.421 44.1013 272.335 43.9733 272.25 43.888C272.165 43.8027 272.165 43.9733 272.25 44.4V44.528L272.506 44.272ZM284.666 134.128C284.751 134.299 284.837 134.384 284.922 134.384C285.007 134.469 285.05 134.341 285.05 134H284.922L284.794 134.128H284.666ZM372.04 102C372.04 99.5253 372.808 97.52 374.344 95.984C374.429 95.8987 374.472 95.8133 374.472 95.728C374.643 95.3867 374.515 95.344 374.088 95.6C373.747 95.7707 373.789 95.856 374.216 95.856C373.363 96.7093 372.424 97.3067 371.4 97.648C370.376 97.9893 369.309 98.16 368.2 98.16C365.64 98.16 363.592 97.392 362.056 95.856C361.885 95.7707 361.8 95.728 361.8 95.728V95.472L361.672 95.6C361.501 95.6 361.416 95.6853 361.416 95.856C360.563 96.7093 359.624 97.3067 358.6 97.648C357.576 97.9893 356.509 98.16 355.4 98.16C352.84 98.16 350.792 97.392 349.256 95.856C349.085 95.7707 349 95.728 349 95.728V95.472L348.872 95.6C348.701 95.6 348.616 95.6853 348.616 95.856C347.763 96.7093 346.824 97.3067 345.8 97.648C344.776 97.9893 343.709 98.16 342.6 98.16C340.04 98.16 337.992 97.392 336.456 95.856C336.285 95.7707 336.2 95.728 336.2 95.728V95.472L336.072 95.6C335.901 95.6 335.859 95.728 335.944 95.984C336.115 96.24 336.2 96.1547 336.2 95.728L336.328 95.856C337.949 97.4773 338.76 99.5253 338.76 102C338.76 103.195 338.504 104.347 337.992 105.456C337.48 106.565 336.84 107.547 336.072 108.4L336.328 108.656C337.949 110.277 338.76 112.325 338.76 114.8C338.76 115.995 338.504 117.147 337.992 118.256C337.48 119.365 336.84 120.347 336.072 121.2L336.328 121.456C337.949 123.077 338.76 125.125 338.76 127.6C338.76 130.075 337.864 132.208 336.072 134C334.365 135.707 332.275 136.56 329.8 136.56C327.325 136.56 325.192 135.707 323.4 134C321.693 132.208 320.84 130.075 320.84 127.6C320.84 125.125 321.608 123.12 323.144 121.584C323.315 121.413 323.4 121.285 323.4 121.2H323.528L323.144 120.816C321.608 119.28 320.84 117.275 320.84 114.8C320.84 112.325 321.608 110.32 323.144 108.784C323.315 108.613 323.4 108.485 323.4 108.4H323.528L323.144 108.016C321.608 106.48 320.84 104.475 320.84 102C320.84 99.5253 321.608 97.52 323.144 95.984C323.315 95.8133 323.4 95.6853 323.4 95.6H323.528L323.144 95.216C321.608 93.68 320.84 91.6747 320.84 89.2C320.84 86.7253 321.608 84.72 323.144 83.184C323.315 83.0133 323.4 82.8853 323.4 82.8H323.528L323.144 82.416C321.608 80.88 320.84 78.8747 320.84 76.4C320.84 73.9253 321.608 71.92 323.144 70.384C323.315 70.2133 323.4 70.0853 323.4 70H323.528L323.144 69.616C321.608 68.08 320.84 66.0747 320.84 63.6C320.84 61.1253 321.608 59.12 323.144 57.584C323.315 57.4133 323.4 57.2853 323.4 57.2H323.528L323.144 56.816C321.608 55.28 320.84 53.2747 320.84 50.8C320.84 48.3253 321.693 46.2347 323.4 44.528C325.192 42.736 327.325 41.84 329.8 41.84C332.275 41.84 334.365 42.736 336.072 44.528C337.864 46.2347 338.76 48.3253 338.76 50.8C338.76 51.9947 338.504 53.1467 337.992 54.256C337.48 55.3653 336.84 56.3467 336.072 57.2L336.328 57.456C337.949 59.0773 338.76 61.1253 338.76 63.6C338.76 64.7947 338.504 65.9467 337.992 67.056C337.48 68.1653 336.84 69.1467 336.072 70L336.328 70.256C337.949 71.8773 338.76 73.9253 338.76 76.4C338.76 77.5947 338.504 78.7467 337.992 79.856C337.48 80.9653 336.84 81.9467 336.072 82.8L336.2 82.928C337.821 81.136 339.955 80.24 342.6 80.24C345.331 80.24 347.464 81.0507 349 82.672C349.768 81.9893 350.707 81.4347 351.816 81.008C353.011 80.496 354.205 80.24 355.4 80.24C357.875 80.24 360.008 81.136 361.8 82.928C363.421 81.136 365.555 80.24 368.2 80.24C370.589 80.24 372.595 81.0507 374.216 82.672C374.131 82.672 374.088 82.7147 374.088 82.8C374.088 82.8853 374.216 82.928 374.472 82.928H374.6V82.8H374.728L374.344 82.416C372.808 80.88 372.04 78.8747 372.04 76.4C372.04 73.9253 372.808 71.92 374.344 70.384C374.515 70.2133 374.6 70.0853 374.6 70H374.728L374.344 69.616C372.808 68.08 372.04 66.0747 372.04 63.6C372.04 61.1253 372.808 59.12 374.344 57.584C374.515 57.4133 374.6 57.2853 374.6 57.2H374.728L374.472 56.944C372.851 55.3227 372.04 53.2747 372.04 50.8C372.04 48.3253 372.893 46.2347 374.6 44.528C376.392 42.736 378.525 41.84 381 41.84C383.475 41.84 385.565 42.736 387.272 44.528C389.064 46.2347 389.96 48.3253 389.96 50.8C389.96 51.9947 389.704 53.1467 389.192 54.256C388.68 55.3653 388.04 56.3467 387.272 57.2L387.528 57.456C389.149 59.0773 389.96 61.1253 389.96 63.6C389.96 64.7947 389.704 65.9467 389.192 67.056C388.68 68.1653 388.04 69.1467 387.272 70L387.528 70.256C389.149 71.8773 389.96 73.9253 389.96 76.4C389.96 77.5947 389.704 78.7467 389.192 79.856C388.68 80.9653 388.04 81.9467 387.272 82.8L387.528 83.056C389.149 84.6773 389.96 86.7253 389.96 89.2C389.96 90.3947 389.704 91.5467 389.192 92.656C388.68 93.7653 388.04 94.7467 387.272 95.6L387.528 95.856C389.149 97.4773 389.96 99.5253 389.96 102C389.96 103.195 389.704 104.347 389.192 105.456C388.68 106.565 388.04 107.547 387.272 108.4L387.528 108.656C389.149 110.277 389.96 112.325 389.96 114.8C389.96 115.995 389.704 117.147 389.192 118.256C388.68 119.365 388.04 120.347 387.272 121.2L387.528 121.456C389.149 123.077 389.96 125.125 389.96 127.6C389.96 130.075 389.064 132.208 387.272 134C385.565 135.707 383.475 136.56 381 136.56C378.525 136.56 376.392 135.707 374.6 134C372.893 132.208 372.04 130.075 372.04 127.6C372.04 125.125 372.808 123.12 374.344 121.584C374.515 121.413 374.6 121.285 374.6 121.2H374.728L374.472 120.944C372.851 119.323 372.04 117.275 372.04 114.8C372.04 112.325 372.808 110.32 374.344 108.784C374.515 108.613 374.6 108.485 374.6 108.4H374.728L374.472 108.144C372.851 106.523 372.04 104.475 372.04 102ZM348.616 95.856C348.701 96.0267 348.787 96.1547 348.872 96.24C348.957 96.24 349 96.0693 349 95.728L348.872 95.6L348.616 95.856ZM361.416 95.856C361.501 96.0267 361.587 96.1547 361.672 96.24C361.757 96.24 361.8 96.0693 361.8 95.728L361.672 95.6L361.416 95.856ZM374.216 82.672C374.387 82.672 374.472 82.7573 374.472 82.928H374.6V82.8C374.6 82.4587 374.472 82.416 374.216 82.672ZM374.216 95.856C374.387 95.7707 374.472 95.728 374.472 95.728V95.6L374.216 95.856Z" fill="white"/>
</svg>
