<svg width="292" height="74" viewBox="0 0 292 74" fill="none" xmlns="http://www.w3.org/2000/svg">
<path d="M63.709 36.5256C65.9516 35.1024 67.8197 33.6654 69.1328 32.2796C76.2942 24.7091 76.0768 12.6491 68.6471 5.34272C61.2174 -1.96365 49.3889 -1.74953 42.2275 5.82097C40.5295 7.61594 38.7729 10.3832 37.0802 13.7138C35.2686 10.4489 33.4132 7.74475 31.6516 6.01241C24.2219 -1.29395 12.3935 -1.07984 5.23202 6.49066C-1.92944 14.0612 -1.71199 26.1212 5.7177 33.4275C7.07997 34.7672 8.99858 36.1333 11.291 37.4744C9.04842 38.8976 7.18035 40.3346 5.86723 41.7204C-1.29423 49.2909 -1.07678 61.3509 6.35291 68.6573C13.7826 75.9636 25.6111 75.7495 32.7725 68.179C34.4705 66.3841 36.2272 63.6168 37.9199 60.2862C39.7316 63.551 41.5867 66.253 43.3484 67.9876C50.7781 75.294 62.6065 75.0798 69.768 67.5093C76.9294 59.9388 76.712 47.8788 69.2823 40.5724C67.92 39.2328 66.0014 37.8667 63.709 36.5256ZM57.4265 50.584C64.1466 57.1925 63.2313 59.0122 61.5883 60.749C59.9453 62.4859 58.1949 63.4842 51.4749 56.8757C45.4576 50.9561 38.8542 41.7494 37.5055 37.9254C36.249 41.8331 30.0189 51.2058 24.2475 57.3069C17.77 64.1543 15.9847 63.2199 14.2802 61.5437C12.5756 59.8674 11.5953 58.0821 18.0728 51.2347C23.8442 45.1337 32.7856 38.4451 36.586 37.0257C32.7869 35.785 23.5267 29.3939 17.5118 23.4765C10.7917 16.868 11.707 15.0483 13.35 13.3115C14.993 11.5747 16.7435 10.5763 23.4635 17.1848C29.5446 23.165 36.2216 32.4777 37.4775 36.2485C38.5415 32.4814 44.9173 22.8593 50.8119 16.628C57.2893 9.78062 59.0746 10.715 60.7792 12.3912C62.4837 14.0675 63.464 15.8528 56.9866 22.7002C51.0942 28.9291 41.8732 35.7713 38.2351 36.9935C41.9718 38.1325 51.3477 44.6038 57.4288 50.584L57.4265 50.584Z" fill="#78D36A"/>
<path d="M103.487 22.8C103.487 21.872 103.807 21.088 104.447 20.448C105.119 19.776 105.919 19.44 106.847 19.44C107.871 19.44 108.671 19.744 109.247 20.352C109.535 20.096 109.887 19.888 110.303 19.728C110.751 19.536 111.199 19.44 111.647 19.44C112.095 19.44 112.527 19.536 112.943 19.728C113.359 19.92 113.711 20.16 113.999 20.448V20.496L114.047 20.448C114.719 19.776 115.519 19.44 116.447 19.44C117.471 19.44 118.271 19.744 118.847 20.352C119.135 20.096 119.487 19.888 119.903 19.728C120.351 19.536 120.799 19.44 121.247 19.44C122.175 19.44 122.959 19.776 123.599 20.448C124.271 21.088 124.607 21.872 124.607 22.8C124.607 23.728 124.271 24.528 123.599 25.2C122.959 25.84 122.175 26.16 121.247 26.16C120.287 26.16 119.519 25.872 118.943 25.296C118.879 25.264 118.847 25.248 118.847 25.248V25.152L118.799 25.2C118.735 25.2 118.703 25.232 118.703 25.296C118.063 25.872 117.311 26.16 116.447 26.16C115.487 26.16 114.719 25.872 114.143 25.296C114.079 25.264 114.047 25.248 114.047 25.248V25.152L113.999 25.2C113.935 25.2 113.903 25.232 113.903 25.296C113.263 25.872 112.511 26.16 111.647 26.16C110.687 26.16 109.919 25.872 109.343 25.296C109.279 25.264 109.247 25.248 109.247 25.248V25.152L109.199 25.2C109.135 25.2 109.119 25.248 109.151 25.344C109.215 25.44 109.247 25.408 109.247 25.248L109.295 25.296C109.903 25.904 110.207 26.672 110.207 27.6C110.207 28.048 110.111 28.48 109.919 28.896C109.727 29.312 109.487 29.68 109.199 30L109.295 30.096C109.903 30.704 110.207 31.472 110.207 32.4C110.207 33.392 109.855 34.208 109.151 34.848V34.896C109.791 34.192 110.623 33.84 111.647 33.84C112.575 33.84 113.375 34.176 114.047 34.848C114.655 34.176 115.455 33.84 116.447 33.84C117.471 33.84 118.271 34.144 118.847 34.752C119.135 34.496 119.487 34.288 119.903 34.128C120.351 33.936 120.799 33.84 121.247 33.84C122.175 33.84 122.959 34.176 123.599 34.848C124.271 35.488 124.607 36.272 124.607 37.2C124.607 38.128 124.271 38.928 123.599 39.6C122.959 40.24 122.175 40.56 121.247 40.56C120.287 40.56 119.519 40.272 118.943 39.696C118.879 39.664 118.847 39.648 118.847 39.648V39.552L118.799 39.6C118.735 39.6 118.703 39.632 118.703 39.696C118.383 40.016 118.031 40.24 117.647 40.368C117.263 40.496 116.863 40.56 116.447 40.56C115.487 40.56 114.719 40.272 114.143 39.696C114.079 39.664 114.047 39.648 114.047 39.648V39.552L113.999 39.6C113.935 39.6 113.903 39.632 113.903 39.696C113.263 40.272 112.511 40.56 111.647 40.56C110.687 40.56 109.919 40.272 109.343 39.696C109.279 39.664 109.247 39.648 109.247 39.648V39.552L109.199 39.6C109.135 39.6 109.119 39.648 109.151 39.744C109.215 39.84 109.247 39.808 109.247 39.648L109.295 39.696C109.903 40.304 110.207 41.072 110.207 42C110.207 42.448 110.111 42.88 109.919 43.296C109.727 43.712 109.487 44.08 109.199 44.4L109.295 44.496C109.903 45.104 110.207 45.872 110.207 46.8C110.207 47.248 110.111 47.68 109.919 48.096C109.727 48.512 109.487 48.88 109.199 49.2L109.247 49.248C109.855 48.576 110.655 48.24 111.647 48.24C112.671 48.24 113.471 48.544 114.047 49.152C114.335 48.896 114.687 48.688 115.103 48.528C115.551 48.336 115.999 48.24 116.447 48.24C117.375 48.24 118.143 48.544 118.751 49.152C118.783 49.184 118.815 49.2 118.847 49.2V49.248C118.911 49.248 118.943 49.216 118.943 49.152C119.551 48.544 120.319 48.24 121.247 48.24C122.175 48.24 122.959 48.576 123.599 49.248C124.271 49.888 124.607 50.672 124.607 51.6C124.607 52.528 124.271 53.328 123.599 54C122.959 54.64 122.175 54.96 121.247 54.96C120.287 54.96 119.519 54.672 118.943 54.096C118.879 54.032 118.847 54 118.847 54V53.952L118.799 54C118.735 54 118.703 54.016 118.703 54.048V54.096C118.063 54.672 117.311 54.96 116.447 54.96C115.487 54.96 114.719 54.672 114.143 54.096C114.079 54.032 114.047 54 114.047 54V53.952L113.999 54C113.935 54 113.903 54.016 113.903 54.048C113.295 54.656 112.543 54.96 111.647 54.96C110.687 54.96 109.919 54.672 109.343 54.096C109.279 54.032 109.247 54 109.247 54V53.952L109.199 54C109.135 54 109.103 54.016 109.103 54.048V54.096C108.463 54.672 107.711 54.96 106.847 54.96C105.919 54.96 105.119 54.64 104.447 54C103.807 53.328 103.487 52.528 103.487 51.6C103.487 50.672 103.775 49.92 104.351 49.344C104.415 49.28 104.447 49.232 104.447 49.2H104.495L104.351 49.056C103.775 48.48 103.487 47.728 103.487 46.8C103.487 45.872 103.775 45.12 104.351 44.544C104.415 44.48 104.447 44.432 104.447 44.4H104.495L104.351 44.256C103.775 43.68 103.487 42.928 103.487 42C103.487 41.072 103.775 40.32 104.351 39.744C104.415 39.68 104.447 39.632 104.447 39.6H104.495L104.399 39.504C103.791 38.896 103.487 38.128 103.487 37.2C103.487 36.272 103.775 35.52 104.351 34.944C104.415 34.88 104.447 34.832 104.447 34.8H104.495L104.351 34.656C103.775 34.08 103.487 33.328 103.487 32.4C103.487 31.472 103.775 30.72 104.351 30.144C104.415 30.08 104.447 30.032 104.447 30H104.495L104.351 29.856C103.775 29.28 103.487 28.528 103.487 27.6C103.487 26.672 103.775 25.92 104.351 25.344C104.415 25.28 104.447 25.232 104.447 25.2H104.495L104.351 25.056C103.775 24.48 103.487 23.728 103.487 22.8ZM122.687 46.8C122.687 45.872 122.975 45.12 123.551 44.544C123.615 44.48 123.647 44.432 123.647 44.4H123.695L123.599 44.304C122.991 43.696 122.687 42.928 122.687 42C122.687 41.072 123.007 40.288 123.647 39.648C124.319 38.976 125.119 38.64 126.047 38.64C126.975 38.64 127.759 38.976 128.399 39.648C129.071 40.288 129.407 41.072 129.407 42C129.407 42.448 129.311 42.88 129.119 43.296C128.927 43.712 128.687 44.08 128.399 44.4L128.495 44.496C129.103 45.104 129.407 45.872 129.407 46.8C129.407 47.728 129.071 48.528 128.399 49.2C127.759 49.84 126.975 50.16 126.047 50.16C125.119 50.16 124.319 49.84 123.647 49.2C123.007 48.528 122.687 47.728 122.687 46.8ZM118.703 25.296C118.735 25.36 118.767 25.408 118.799 25.44C118.831 25.44 118.847 25.376 118.847 25.248L118.799 25.2L118.703 25.296ZM113.903 39.696C113.935 39.76 113.967 39.808 113.999 39.84C114.031 39.84 114.047 39.776 114.047 39.648L113.999 39.6L113.903 39.696ZM113.903 25.296C113.935 25.36 113.967 25.408 113.999 25.44C114.031 25.44 114.047 25.376 114.047 25.248L113.999 25.2L113.903 25.296ZM118.703 39.696C118.735 39.76 118.767 39.808 118.799 39.84C118.831 39.84 118.847 39.776 118.847 39.648L118.799 39.6L118.703 39.696ZM109.103 54.048C109.135 54.112 109.167 54.144 109.199 54.144C109.231 54.176 109.247 54.128 109.247 54H109.199L109.103 54.048ZM118.703 54.048C118.735 54.112 118.767 54.144 118.799 54.144C118.831 54.176 118.847 54.128 118.847 54H118.799L118.703 54.048ZM118.943 49.152C118.911 49.088 118.879 49.04 118.847 49.008C118.815 48.976 118.815 49.04 118.847 49.2V49.248L118.943 49.152ZM113.903 54.048C113.935 54.112 113.967 54.144 113.999 54.144C114.031 54.176 114.047 54.128 114.047 54H113.999L113.951 54.048H113.903ZM158.668 27.6C158.668 26.672 158.988 25.888 159.628 25.248C159.596 25.216 159.596 25.216 159.628 25.248C159.66 25.248 159.66 25.232 159.628 25.2C159.276 24.848 159.02 24.48 158.86 24.096C158.732 23.68 158.668 23.264 158.668 22.848C158.668 21.984 158.972 21.2 159.58 20.496C160.188 19.792 161.004 19.44 162.028 19.44C162.956 19.44 163.74 19.776 164.38 20.448C165.052 21.088 165.388 21.872 165.388 22.8C165.388 23.728 165.052 24.528 164.38 25.2L164.332 25.248C164.236 25.344 164.22 25.408 164.284 25.44C164.348 25.44 164.412 25.408 164.476 25.344C165.084 26.016 165.388 26.768 165.388 27.6C165.388 28.528 165.052 29.328 164.38 30L164.332 30.048C164.236 30.144 164.22 30.208 164.284 30.24C164.348 30.24 164.412 30.208 164.476 30.144C165.084 30.816 165.388 31.568 165.388 32.4C165.388 33.328 165.052 34.128 164.38 34.8C163.74 35.44 162.956 35.76 162.028 35.76C161.004 35.76 160.188 35.408 159.58 34.704C158.972 34 158.668 33.216 158.668 32.352C158.668 31.456 158.988 30.688 159.628 30.048L159.58 30C158.972 29.328 158.668 28.528 158.668 27.6ZM139.468 27.6C139.468 26.672 139.788 25.888 140.428 25.248C140.396 25.216 140.396 25.216 140.428 25.248C140.46 25.248 140.46 25.232 140.428 25.2C140.076 24.848 139.82 24.48 139.66 24.096C139.532 23.68 139.468 23.264 139.468 22.848C139.468 21.984 139.772 21.2 140.38 20.496C140.988 19.792 141.804 19.44 142.828 19.44C143.756 19.44 144.54 19.776 145.18 20.448C145.852 21.088 146.188 21.872 146.188 22.8C146.188 23.728 145.852 24.528 145.18 25.2L145.132 25.248C145.036 25.344 145.02 25.408 145.084 25.44C145.148 25.44 145.212 25.408 145.276 25.344C145.884 26.016 146.188 26.768 146.188 27.6C146.188 28.528 145.852 29.328 145.18 30L145.132 30.048C145.036 30.144 145.02 30.208 145.084 30.24C145.148 30.24 145.212 30.208 145.276 30.144C145.884 30.816 146.188 31.568 146.188 32.4C146.188 33.328 145.852 34.128 145.18 34.8C144.54 35.44 143.756 35.76 142.828 35.76C141.804 35.76 140.988 35.408 140.38 34.704C139.772 34 139.468 33.216 139.468 32.352C139.468 31.456 139.788 30.688 140.428 30.048L140.38 30C139.772 29.328 139.468 28.528 139.468 27.6ZM144.268 37.2C144.268 36.272 144.588 35.488 145.228 34.848C145.9 34.176 146.7 33.84 147.628 33.84C148.556 33.84 149.34 34.176 149.98 34.848C150.652 35.488 150.988 36.272 150.988 37.2C150.988 38.128 150.652 38.928 149.98 39.6C149.34 40.24 148.556 40.56 147.628 40.56C146.7 40.56 145.9 40.24 145.228 39.6C144.588 38.928 144.268 38.128 144.268 37.2ZM153.868 37.2C153.868 36.272 154.188 35.488 154.828 34.848C155.5 34.176 156.3 33.84 157.228 33.84C158.156 33.84 158.94 34.176 159.58 34.848C160.252 35.488 160.588 36.272 160.588 37.2C160.588 38.128 160.252 38.928 159.58 39.6C158.94 40.24 158.156 40.56 157.228 40.56C156.3 40.56 155.5 40.24 154.828 39.6C154.188 38.928 153.868 38.128 153.868 37.2ZM139.468 51.6C139.468 50.672 139.788 49.888 140.428 49.248C141.1 48.576 141.9 48.24 142.828 48.24C143.756 48.24 144.54 48.576 145.18 49.248C145.852 49.888 146.188 50.672 146.188 51.6C146.188 52.528 145.852 53.328 145.18 54C144.54 54.64 143.756 54.96 142.828 54.96C141.9 54.96 141.1 54.64 140.428 54C139.788 53.328 139.468 52.528 139.468 51.6ZM149.068 42C149.068 41.072 149.388 40.288 150.028 39.648C150.7 38.976 151.5 38.64 152.428 38.64C153.356 38.64 154.14 38.976 154.78 39.648C155.452 40.288 155.788 41.072 155.788 42C155.788 42.928 155.452 43.728 154.78 44.4C154.14 45.04 153.356 45.36 152.428 45.36C151.5 45.36 150.7 45.04 150.028 44.4C149.388 43.728 149.068 42.928 149.068 42ZM144.268 46.8C144.268 45.872 144.588 45.088 145.228 44.448C145.9 43.776 146.7 43.44 147.628 43.44C148.556 43.44 149.34 43.776 149.98 44.448C150.652 45.088 150.988 45.872 150.988 46.8C150.988 47.728 150.652 48.528 149.98 49.2C149.34 49.84 148.556 50.16 147.628 50.16C146.7 50.16 145.9 49.84 145.228 49.2C144.588 48.528 144.268 47.728 144.268 46.8ZM164.476 25.344C164.54 25.28 164.508 25.248 164.38 25.248C164.38 25.312 164.412 25.344 164.476 25.344ZM145.276 25.344C145.34 25.28 145.308 25.248 145.18 25.248C145.18 25.312 145.212 25.344 145.276 25.344ZM164.476 30.144C164.54 30.08 164.508 30.048 164.38 30.048C164.38 30.112 164.412 30.144 164.476 30.144ZM145.276 30.144C145.34 30.08 145.308 30.048 145.18 30.048C145.18 30.112 145.212 30.144 145.276 30.144ZM185.049 27.6C185.049 26.672 185.337 25.92 185.913 25.344C186.009 25.248 186.041 25.2 186.009 25.2C185.977 25.168 185.929 25.168 185.865 25.2C185.833 25.2 185.801 25.216 185.769 25.248C185.737 25.28 185.769 25.296 185.865 25.296C185.225 25.872 184.473 26.16 183.609 26.16C182.649 26.16 181.881 25.872 181.305 25.296C181.241 25.264 181.209 25.248 181.209 25.248V25.152L181.161 25.2C181.097 25.2 181.065 25.232 181.065 25.296C180.745 25.616 180.393 25.84 180.009 25.968C179.625 26.096 179.225 26.16 178.809 26.16C177.881 26.16 177.081 25.84 176.409 25.2C175.769 24.528 175.449 23.728 175.449 22.8C175.449 21.872 175.769 21.088 176.409 20.448C177.081 19.776 177.881 19.44 178.809 19.44C179.833 19.44 180.633 19.744 181.209 20.352C181.497 20.096 181.849 19.888 182.265 19.728C182.713 19.536 183.161 19.44 183.609 19.44C184.537 19.44 185.337 19.776 186.009 20.448C186.617 19.776 187.417 19.44 188.409 19.44C188.857 19.44 189.289 19.536 189.705 19.728C190.121 19.92 190.473 20.16 190.761 20.448V20.496L190.809 20.448C191.481 19.776 192.281 19.44 193.209 19.44C194.233 19.44 195.033 19.744 195.609 20.352C195.897 20.096 196.249 19.888 196.665 19.728C197.113 19.536 197.561 19.44 198.009 19.44C198.937 19.44 199.721 19.776 200.361 20.448C201.033 21.088 201.369 21.872 201.369 22.8C201.369 23.728 201.033 24.528 200.361 25.2C199.721 25.84 198.937 26.16 198.009 26.16C197.049 26.16 196.281 25.872 195.705 25.296C195.641 25.264 195.609 25.248 195.609 25.248V25.152L195.561 25.2C195.497 25.2 195.465 25.232 195.465 25.296C194.825 25.872 194.073 26.16 193.209 26.16C192.249 26.16 191.481 25.872 190.905 25.296C190.841 25.264 190.809 25.248 190.809 25.248V25.152L190.761 25.2C190.697 25.2 190.681 25.248 190.713 25.344C190.777 25.44 190.809 25.408 190.809 25.248L190.857 25.296C191.465 25.904 191.769 26.672 191.769 27.6C191.769 28.048 191.673 28.48 191.481 28.896C191.289 29.312 191.049 29.68 190.761 30L190.857 30.096C191.465 30.704 191.769 31.472 191.769 32.4C191.769 32.848 191.673 33.28 191.481 33.696C191.289 34.112 191.049 34.48 190.761 34.8L190.857 34.896C191.465 35.504 191.769 36.272 191.769 37.2C191.769 37.648 191.673 38.08 191.481 38.496C191.289 38.912 191.049 39.28 190.761 39.6L190.857 39.696C191.465 40.304 191.769 41.072 191.769 42C191.769 42.448 191.673 42.88 191.481 43.296C191.289 43.712 191.049 44.08 190.761 44.4L190.857 44.496C191.465 45.104 191.769 45.872 191.769 46.8C191.769 47.248 191.673 47.68 191.481 48.096C191.289 48.512 191.049 48.88 190.761 49.2L190.857 49.296C191.465 49.904 191.769 50.672 191.769 51.6C191.769 52.528 191.433 53.328 190.761 54C190.121 54.64 189.337 54.96 188.409 54.96C187.481 54.96 186.681 54.64 186.009 54C185.369 53.328 185.049 52.528 185.049 51.6C185.049 50.672 185.337 49.92 185.913 49.344C185.977 49.28 186.009 49.232 186.009 49.2H186.057L185.913 49.056C185.337 48.48 185.049 47.728 185.049 46.8C185.049 45.872 185.337 45.12 185.913 44.544C185.977 44.48 186.009 44.432 186.009 44.4H186.057L185.913 44.256C185.337 43.68 185.049 42.928 185.049 42C185.049 41.072 185.337 40.32 185.913 39.744C185.977 39.68 186.009 39.632 186.009 39.6H186.057L185.961 39.504C185.353 38.896 185.049 38.128 185.049 37.2C185.049 36.272 185.337 35.52 185.913 34.944C185.977 34.88 186.009 34.832 186.009 34.8H186.057L185.961 34.704C185.353 34.096 185.049 33.328 185.049 32.4C185.049 31.472 185.337 30.72 185.913 30.144C185.977 30.08 186.009 30.032 186.009 30H186.057L185.961 29.904C185.353 29.296 185.049 28.528 185.049 27.6ZM181.065 25.296C181.097 25.36 181.129 25.408 181.161 25.44C181.193 25.44 181.209 25.376 181.209 25.248L181.161 25.2L181.065 25.296ZM195.465 25.296C195.497 25.36 195.529 25.408 195.561 25.44C195.593 25.44 195.609 25.376 195.609 25.248L195.561 25.2L195.465 25.296ZM185.865 25.296C185.929 25.264 185.961 25.248 185.961 25.248V25.2L185.865 25.296ZM211.431 42C211.431 41.072 211.719 40.32 212.295 39.744C212.359 39.68 212.391 39.632 212.391 39.6H212.439L212.295 39.456C211.719 38.88 211.431 38.128 211.431 37.2C211.431 36.272 211.719 35.52 212.295 34.944C212.359 34.88 212.391 34.832 212.391 34.8H212.439L212.295 34.656C211.719 34.08 211.431 33.328 211.431 32.4C211.431 31.472 211.719 30.72 212.295 30.144C212.359 30.08 212.391 30.032 212.391 30H212.439L212.343 29.904C211.735 29.296 211.431 28.528 211.431 27.6C211.431 26.672 211.751 25.888 212.391 25.248C213.063 24.576 213.863 24.24 214.791 24.24C215.719 24.24 216.503 24.576 217.143 25.248C217.815 25.888 218.151 26.672 218.151 27.6C218.151 28.048 218.055 28.48 217.863 28.896C217.671 29.312 217.431 29.68 217.143 30L217.239 30.096C217.847 30.704 218.151 31.472 218.151 32.4C218.151 32.848 218.055 33.28 217.863 33.696C217.671 34.112 217.431 34.48 217.143 34.8L217.239 34.896C217.847 35.504 218.151 36.272 218.151 37.2C218.151 37.648 218.055 38.08 217.863 38.496C217.671 38.912 217.431 39.28 217.143 39.6L217.239 39.696C217.847 40.304 218.151 41.072 218.151 42C218.151 42.448 218.055 42.88 217.863 43.296C217.671 43.712 217.431 44.08 217.143 44.4L217.239 44.496C217.847 45.104 218.151 45.872 218.151 46.8C218.151 47.728 217.815 48.528 217.143 49.2C216.503 49.84 215.719 50.16 214.791 50.16C213.863 50.16 213.063 49.84 212.391 49.2C211.751 48.528 211.431 47.728 211.431 46.8C211.431 45.872 211.719 45.12 212.295 44.544C212.359 44.48 212.391 44.432 212.391 44.4H212.439L212.295 44.256C211.719 43.68 211.431 42.928 211.431 42ZM230.631 42C230.631 41.072 230.919 40.32 231.495 39.744C231.559 39.68 231.591 39.632 231.591 39.6H231.639L231.495 39.456C230.919 38.88 230.631 38.128 230.631 37.2C230.631 36.272 230.919 35.52 231.495 34.944C231.559 34.88 231.591 34.832 231.591 34.8H231.639L231.495 34.656C230.919 34.08 230.631 33.328 230.631 32.4C230.631 31.472 230.919 30.72 231.495 30.144C231.559 30.08 231.591 30.032 231.591 30H231.639L231.543 29.904C230.935 29.296 230.631 28.528 230.631 27.6C230.631 26.672 230.951 25.888 231.591 25.248C232.263 24.576 233.063 24.24 233.991 24.24C234.919 24.24 235.703 24.576 236.343 25.248C237.015 25.888 237.351 26.672 237.351 27.6C237.351 28.048 237.255 28.48 237.063 28.896C236.871 29.312 236.631 29.68 236.343 30L236.439 30.096C237.047 30.704 237.351 31.472 237.351 32.4C237.351 32.848 237.255 33.28 237.063 33.696C236.871 34.112 236.631 34.48 236.343 34.8L236.439 34.896C237.047 35.504 237.351 36.272 237.351 37.2C237.351 37.648 237.255 38.08 237.063 38.496C236.871 38.912 236.631 39.28 236.343 39.6L236.439 39.696C237.047 40.304 237.351 41.072 237.351 42C237.351 42.448 237.255 42.88 237.063 43.296C236.871 43.712 236.631 44.08 236.343 44.4L236.439 44.496C237.047 45.104 237.351 45.872 237.351 46.8C237.351 47.728 237.015 48.528 236.343 49.2C235.703 49.84 234.919 50.16 233.991 50.16C233.063 50.16 232.263 49.84 231.591 49.2C230.951 48.528 230.631 47.728 230.631 46.8C230.631 45.872 230.919 45.12 231.495 44.544C231.559 44.48 231.591 44.432 231.591 44.4H231.639L231.495 44.256C230.919 43.68 230.631 42.928 230.631 42ZM216.231 51.6C216.231 50.672 216.551 49.888 217.191 49.248C217.863 48.576 218.663 48.24 219.591 48.24C220.615 48.24 221.415 48.544 221.991 49.152C222.279 48.896 222.631 48.688 223.047 48.528C223.495 48.336 223.943 48.24 224.391 48.24C225.319 48.24 226.087 48.544 226.695 49.152C226.727 49.184 226.759 49.2 226.791 49.2V49.248C226.855 49.248 226.887 49.216 226.887 49.152C227.495 48.544 228.263 48.24 229.191 48.24C230.119 48.24 230.903 48.576 231.543 49.248C232.215 49.888 232.551 50.672 232.551 51.6C232.551 52.528 232.215 53.328 231.543 54C230.903 54.64 230.119 54.96 229.191 54.96C228.231 54.96 227.463 54.672 226.887 54.096C226.823 54.032 226.791 54 226.791 54V53.952L226.743 54C226.679 54 226.647 54.016 226.647 54.048V54.096C226.007 54.672 225.255 54.96 224.391 54.96C223.431 54.96 222.663 54.672 222.087 54.096C222.023 54.032 221.991 54 221.991 54V53.952L221.943 54C221.879 54 221.847 54.016 221.847 54.048V54.096C221.207 54.672 220.455 54.96 219.591 54.96C218.663 54.96 217.863 54.64 217.191 54C216.551 53.328 216.231 52.528 216.231 51.6ZM216.231 22.8C216.231 21.872 216.551 21.088 217.191 20.448C217.863 19.776 218.663 19.44 219.591 19.44C220.519 19.44 221.287 19.744 221.895 20.352C221.927 20.384 221.959 20.4 221.991 20.4V20.448C222.055 20.448 222.087 20.416 222.087 20.352C222.695 19.744 223.463 19.44 224.391 19.44C225.319 19.44 226.119 19.776 226.791 20.448C227.399 19.776 228.199 19.44 229.191 19.44C230.119 19.44 230.903 19.776 231.543 20.448C232.215 21.088 232.551 21.872 232.551 22.8C232.551 23.728 232.215 24.528 231.543 25.2C230.903 25.84 230.119 26.16 229.191 26.16C228.231 26.16 227.463 25.872 226.887 25.296C226.823 25.264 226.791 25.248 226.791 25.248V25.152L226.743 25.2C226.679 25.2 226.647 25.232 226.647 25.296C226.007 25.872 225.255 26.16 224.391 26.16C223.431 26.16 222.663 25.872 222.087 25.296C222.023 25.264 221.991 25.248 221.991 25.248V25.152L221.943 25.2C221.879 25.2 221.847 25.232 221.847 25.296C221.207 25.872 220.455 26.16 219.591 26.16C218.663 26.16 217.863 25.84 217.191 25.2C216.551 24.528 216.231 23.728 216.231 22.8ZM226.647 25.296C226.679 25.36 226.711 25.408 226.743 25.44C226.775 25.44 226.791 25.376 226.791 25.248L226.743 25.2L226.647 25.296ZM221.847 25.296C221.879 25.36 221.911 25.408 221.943 25.44C221.975 25.44 221.991 25.376 221.991 25.248L221.943 25.2L221.847 25.296ZM221.847 54.048C221.879 54.112 221.911 54.144 221.943 54.144C221.975 54.176 221.991 54.128 221.991 54H221.943L221.847 54.048ZM226.887 49.152C226.855 49.088 226.823 49.04 226.791 49.008C226.759 48.976 226.759 49.04 226.791 49.2V49.248L226.887 49.152ZM222.087 20.352C222.055 20.288 222.023 20.24 221.991 20.208C221.959 20.176 221.959 20.24 221.991 20.4V20.448L222.087 20.352ZM226.647 54.048C226.679 54.112 226.711 54.144 226.743 54.144C226.775 54.176 226.791 54.128 226.791 54H226.743L226.695 54.048H226.647ZM266.612 42C266.612 41.072 266.9 40.32 267.476 39.744C267.508 39.712 267.524 39.68 267.524 39.648C267.588 39.52 267.54 39.504 267.38 39.6C267.252 39.664 267.268 39.696 267.428 39.696C267.108 40.016 266.756 40.24 266.372 40.368C265.988 40.496 265.588 40.56 265.172 40.56C264.212 40.56 263.444 40.272 262.868 39.696C262.804 39.664 262.772 39.648 262.772 39.648V39.552L262.724 39.6C262.66 39.6 262.628 39.632 262.628 39.696C262.308 40.016 261.956 40.24 261.572 40.368C261.188 40.496 260.788 40.56 260.372 40.56C259.412 40.56 258.644 40.272 258.068 39.696C258.004 39.664 257.972 39.648 257.972 39.648V39.552L257.924 39.6C257.86 39.6 257.828 39.632 257.828 39.696C257.508 40.016 257.156 40.24 256.772 40.368C256.388 40.496 255.988 40.56 255.572 40.56C254.612 40.56 253.844 40.272 253.268 39.696C253.204 39.664 253.172 39.648 253.172 39.648V39.552L253.124 39.6C253.06 39.6 253.044 39.648 253.076 39.744C253.14 39.84 253.172 39.808 253.172 39.648L253.22 39.696C253.828 40.304 254.132 41.072 254.132 42C254.132 42.448 254.036 42.88 253.844 43.296C253.652 43.712 253.412 44.08 253.124 44.4L253.22 44.496C253.828 45.104 254.132 45.872 254.132 46.8C254.132 47.248 254.036 47.68 253.844 48.096C253.652 48.512 253.412 48.88 253.124 49.2L253.22 49.296C253.828 49.904 254.132 50.672 254.132 51.6C254.132 52.528 253.796 53.328 253.124 54C252.484 54.64 251.7 54.96 250.772 54.96C249.844 54.96 249.044 54.64 248.372 54C247.732 53.328 247.412 52.528 247.412 51.6C247.412 50.672 247.7 49.92 248.276 49.344C248.34 49.28 248.372 49.232 248.372 49.2H248.42L248.276 49.056C247.7 48.48 247.412 47.728 247.412 46.8C247.412 45.872 247.7 45.12 248.276 44.544C248.34 44.48 248.372 44.432 248.372 44.4H248.42L248.276 44.256C247.7 43.68 247.412 42.928 247.412 42C247.412 41.072 247.7 40.32 248.276 39.744C248.34 39.68 248.372 39.632 248.372 39.6H248.42L248.276 39.456C247.7 38.88 247.412 38.128 247.412 37.2C247.412 36.272 247.7 35.52 248.276 34.944C248.34 34.88 248.372 34.832 248.372 34.8H248.42L248.276 34.656C247.7 34.08 247.412 33.328 247.412 32.4C247.412 31.472 247.7 30.72 248.276 30.144C248.34 30.08 248.372 30.032 248.372 30H248.42L248.276 29.856C247.7 29.28 247.412 28.528 247.412 27.6C247.412 26.672 247.7 25.92 248.276 25.344C248.34 25.28 248.372 25.232 248.372 25.2H248.42L248.276 25.056C247.7 24.48 247.412 23.728 247.412 22.8C247.412 21.872 247.732 21.088 248.372 20.448C249.044 19.776 249.844 19.44 250.772 19.44C251.7 19.44 252.484 19.776 253.124 20.448C253.796 21.088 254.132 21.872 254.132 22.8C254.132 23.248 254.036 23.68 253.844 24.096C253.652 24.512 253.412 24.88 253.124 25.2L253.22 25.296C253.828 25.904 254.132 26.672 254.132 27.6C254.132 28.048 254.036 28.48 253.844 28.896C253.652 29.312 253.412 29.68 253.124 30L253.22 30.096C253.828 30.704 254.132 31.472 254.132 32.4C254.132 32.848 254.036 33.28 253.844 33.696C253.652 34.112 253.412 34.48 253.124 34.8L253.172 34.848C253.78 34.176 254.58 33.84 255.572 33.84C256.596 33.84 257.396 34.144 257.972 34.752C258.26 34.496 258.612 34.288 259.028 34.128C259.476 33.936 259.924 33.84 260.372 33.84C261.3 33.84 262.1 34.176 262.772 34.848C263.38 34.176 264.18 33.84 265.172 33.84C266.068 33.84 266.82 34.144 267.428 34.752C267.396 34.752 267.38 34.768 267.38 34.8C267.38 34.832 267.428 34.848 267.524 34.848H267.572V34.8H267.62L267.476 34.656C266.9 34.08 266.612 33.328 266.612 32.4C266.612 31.472 266.9 30.72 267.476 30.144C267.54 30.08 267.572 30.032 267.572 30H267.62L267.476 29.856C266.9 29.28 266.612 28.528 266.612 27.6C266.612 26.672 266.9 25.92 267.476 25.344C267.54 25.28 267.572 25.232 267.572 25.2H267.62L267.524 25.104C266.916 24.496 266.612 23.728 266.612 22.8C266.612 21.872 266.932 21.088 267.572 20.448C268.244 19.776 269.044 19.44 269.972 19.44C270.9 19.44 271.684 19.776 272.324 20.448C272.996 21.088 273.332 21.872 273.332 22.8C273.332 23.248 273.236 23.68 273.044 24.096C272.852 24.512 272.612 24.88 272.324 25.2L272.42 25.296C273.028 25.904 273.332 26.672 273.332 27.6C273.332 28.048 273.236 28.48 273.044 28.896C272.852 29.312 272.612 29.68 272.324 30L272.42 30.096C273.028 30.704 273.332 31.472 273.332 32.4C273.332 32.848 273.236 33.28 273.044 33.696C272.852 34.112 272.612 34.48 272.324 34.8L272.42 34.896C273.028 35.504 273.332 36.272 273.332 37.2C273.332 37.648 273.236 38.08 273.044 38.496C272.852 38.912 272.612 39.28 272.324 39.6L272.42 39.696C273.028 40.304 273.332 41.072 273.332 42C273.332 42.448 273.236 42.88 273.044 43.296C272.852 43.712 272.612 44.08 272.324 44.4L272.42 44.496C273.028 45.104 273.332 45.872 273.332 46.8C273.332 47.248 273.236 47.68 273.044 48.096C272.852 48.512 272.612 48.88 272.324 49.2L272.42 49.296C273.028 49.904 273.332 50.672 273.332 51.6C273.332 52.528 272.996 53.328 272.324 54C271.684 54.64 270.9 54.96 269.972 54.96C269.044 54.96 268.244 54.64 267.572 54C266.932 53.328 266.612 52.528 266.612 51.6C266.612 50.672 266.9 49.92 267.476 49.344C267.54 49.28 267.572 49.232 267.572 49.2H267.62L267.524 49.104C266.916 48.496 266.612 47.728 266.612 46.8C266.612 45.872 266.9 45.12 267.476 44.544C267.54 44.48 267.572 44.432 267.572 44.4H267.62L267.524 44.304C266.916 43.696 266.612 42.928 266.612 42ZM257.828 39.696C257.86 39.76 257.892 39.808 257.924 39.84C257.956 39.84 257.972 39.776 257.972 39.648L257.924 39.6L257.828 39.696ZM262.628 39.696C262.66 39.76 262.692 39.808 262.724 39.84C262.756 39.84 262.772 39.776 262.772 39.648L262.724 39.6L262.628 39.696ZM267.428 34.752C267.492 34.752 267.524 34.784 267.524 34.848H267.572V34.8C267.572 34.672 267.524 34.656 267.428 34.752ZM267.428 39.696C267.492 39.664 267.524 39.648 267.524 39.648V39.6L267.428 39.696Z" fill="#73D065"/>
</svg>
