<svg width="547" height="149" viewBox="0 0 547 149" fill="none" xmlns="http://www.w3.org/2000/svg">
<path d="M127.418 73.5447C131.903 70.6791 135.639 67.7857 138.266 64.9954C152.588 49.7521 152.154 25.4691 137.294 10.7576C122.435 -3.95383 98.7779 -3.5227 84.455 11.7206C81.059 15.3348 77.5458 20.9067 74.1604 27.6129C70.5371 21.039 66.8264 15.5942 63.3033 12.1061C48.4439 -2.60539 24.787 -2.17426 10.464 13.069C-3.85889 28.3123 -3.42399 52.5953 11.4354 67.3068C14.1599 70.0042 17.9972 72.755 22.5821 75.4553C18.0968 78.3209 14.3607 81.2142 11.7345 84.0045C-2.58847 99.2478 -2.15357 123.531 12.7058 138.242C27.5652 152.954 51.2221 152.523 65.5451 137.279C68.941 133.665 72.4544 128.093 75.8399 121.387C79.4631 127.961 83.1735 133.401 86.6967 136.894C101.556 151.605 125.213 151.174 139.536 135.931C153.859 120.688 153.424 96.4046 138.565 81.6931C135.84 78.9957 132.003 76.245 127.418 73.5447ZM114.853 101.852C128.293 115.158 126.463 118.822 123.177 122.319C119.891 125.816 116.39 127.826 102.95 114.52C90.9152 102.601 77.7085 84.063 75.0109 76.3633C72.498 84.2316 60.0377 103.104 48.4949 115.388C35.5401 129.175 31.9694 127.294 28.5604 123.919C25.1513 120.544 23.1907 116.949 36.1455 103.162C47.6883 90.8773 65.5711 77.4096 73.172 74.5517C65.5738 72.0535 47.0535 59.185 35.0235 47.2702C21.5834 33.964 23.414 30.3 26.7 26.8029C29.986 23.3057 33.487 21.2955 46.927 34.6018C59.0893 46.643 72.4432 65.3943 74.9551 72.9869C77.083 65.4018 89.8346 46.0274 101.624 33.4807C114.579 19.6934 118.149 21.5748 121.558 24.9499C124.967 28.3251 126.928 31.9199 113.973 45.7072C102.188 58.2492 83.7464 72.0261 76.4701 74.487C83.9436 76.7803 102.695 89.8104 114.858 101.852L114.853 101.852Z" fill="white"/>
<path d="M179.974 46.1C179.974 44.244 180.614 42.676 181.894 41.396C183.238 40.052 184.838 39.38 186.694 39.38C188.742 39.38 190.342 39.988 191.494 41.204C192.07 40.692 192.774 40.276 193.606 39.956C194.502 39.572 195.398 39.38 196.294 39.38C197.19 39.38 198.054 39.572 198.886 39.956C199.718 40.34 200.422 40.82 200.998 41.396V41.492L201.094 41.396C202.438 40.052 204.038 39.38 205.894 39.38C207.942 39.38 209.542 39.988 210.694 41.204C211.27 40.692 211.974 40.276 212.806 39.956C213.702 39.572 214.598 39.38 215.494 39.38C217.35 39.38 218.918 40.052 220.198 41.396C221.542 42.676 222.214 44.244 222.214 46.1C222.214 47.956 221.542 49.556 220.198 50.9C218.918 52.18 217.35 52.82 215.494 52.82C213.574 52.82 212.038 52.244 210.886 51.092C210.758 51.028 210.694 50.996 210.694 50.996V50.804L210.598 50.9C210.47 50.9 210.406 50.964 210.406 51.092C209.126 52.244 207.622 52.82 205.894 52.82C203.974 52.82 202.438 52.244 201.286 51.092C201.158 51.028 201.094 50.996 201.094 50.996V50.804L200.998 50.9C200.87 50.9 200.806 50.964 200.806 51.092C199.526 52.244 198.022 52.82 196.294 52.82C194.374 52.82 192.838 52.244 191.686 51.092C191.558 51.028 191.494 50.996 191.494 50.996V50.804L191.398 50.9C191.27 50.9 191.238 50.996 191.302 51.188C191.43 51.38 191.494 51.316 191.494 50.996L191.59 51.092C192.806 52.308 193.414 53.844 193.414 55.7C193.414 56.596 193.222 57.46 192.838 58.292C192.454 59.124 191.974 59.86 191.398 60.5L191.59 60.692C192.806 61.908 193.414 63.444 193.414 65.3C193.414 67.284 192.71 68.916 191.302 70.196V70.292C192.582 68.884 194.246 68.18 196.294 68.18C198.15 68.18 199.75 68.852 201.094 70.196C202.31 68.852 203.91 68.18 205.894 68.18C207.942 68.18 209.542 68.788 210.694 70.004C211.27 69.492 211.974 69.076 212.806 68.756C213.702 68.372 214.598 68.18 215.494 68.18C217.35 68.18 218.918 68.852 220.198 70.196C221.542 71.476 222.214 73.044 222.214 74.9C222.214 76.756 221.542 78.356 220.198 79.7C218.918 80.98 217.35 81.62 215.494 81.62C213.574 81.62 212.038 81.044 210.886 79.892C210.758 79.828 210.694 79.796 210.694 79.796V79.604L210.598 79.7C210.47 79.7 210.406 79.764 210.406 79.892C209.766 80.532 209.062 80.98 208.294 81.236C207.526 81.492 206.726 81.62 205.894 81.62C203.974 81.62 202.438 81.044 201.286 79.892C201.158 79.828 201.094 79.796 201.094 79.796V79.604L200.998 79.7C200.87 79.7 200.806 79.764 200.806 79.892C199.526 81.044 198.022 81.62 196.294 81.62C194.374 81.62 192.838 81.044 191.686 79.892C191.558 79.828 191.494 79.796 191.494 79.796V79.604L191.398 79.7C191.27 79.7 191.238 79.796 191.302 79.988C191.43 80.18 191.494 80.116 191.494 79.796L191.59 79.892C192.806 81.108 193.414 82.644 193.414 84.5C193.414 85.396 193.222 86.26 192.838 87.092C192.454 87.924 191.974 88.66 191.398 89.3L191.59 89.492C192.806 90.708 193.414 92.244 193.414 94.1C193.414 94.996 193.222 95.86 192.838 96.692C192.454 97.524 191.974 98.26 191.398 98.9L191.494 98.996C192.71 97.652 194.31 96.98 196.294 96.98C198.342 96.98 199.942 97.588 201.094 98.804C201.67 98.292 202.374 97.876 203.206 97.556C204.102 97.172 204.998 96.98 205.894 96.98C207.75 96.98 209.286 97.588 210.502 98.804C210.566 98.868 210.63 98.9 210.694 98.9V98.996C210.822 98.996 210.886 98.932 210.886 98.804C212.102 97.588 213.638 96.98 215.494 96.98C217.35 96.98 218.918 97.652 220.198 98.996C221.542 100.276 222.214 101.844 222.214 103.7C222.214 105.556 221.542 107.156 220.198 108.5C218.918 109.78 217.35 110.42 215.494 110.42C213.574 110.42 212.038 109.844 210.886 108.692C210.758 108.564 210.694 108.5 210.694 108.5V108.404L210.598 108.5C210.47 108.5 210.406 108.532 210.406 108.596V108.692C209.126 109.844 207.622 110.42 205.894 110.42C203.974 110.42 202.438 109.844 201.286 108.692C201.158 108.564 201.094 108.5 201.094 108.5V108.404L200.998 108.5C200.87 108.5 200.806 108.532 200.806 108.596C199.59 109.812 198.086 110.42 196.294 110.42C194.374 110.42 192.838 109.844 191.686 108.692C191.558 108.564 191.494 108.5 191.494 108.5V108.404L191.398 108.5C191.27 108.5 191.206 108.532 191.206 108.596V108.692C189.926 109.844 188.422 110.42 186.694 110.42C184.838 110.42 183.238 109.78 181.894 108.5C180.614 107.156 179.974 105.556 179.974 103.7C179.974 101.844 180.55 100.34 181.702 99.188C181.83 99.06 181.894 98.964 181.894 98.9H181.99L181.702 98.612C180.55 97.46 179.974 95.956 179.974 94.1C179.974 92.244 180.55 90.74 181.702 89.588C181.83 89.46 181.894 89.364 181.894 89.3H181.99L181.702 89.012C180.55 87.86 179.974 86.356 179.974 84.5C179.974 82.644 180.55 81.14 181.702 79.988C181.83 79.86 181.894 79.764 181.894 79.7H181.99L181.798 79.508C180.582 78.292 179.974 76.756 179.974 74.9C179.974 73.044 180.55 71.54 181.702 70.388C181.83 70.26 181.894 70.164 181.894 70.1H181.99L181.702 69.812C180.55 68.66 179.974 67.156 179.974 65.3C179.974 63.444 180.55 61.94 181.702 60.788C181.83 60.66 181.894 60.564 181.894 60.5H181.99L181.702 60.212C180.55 59.06 179.974 57.556 179.974 55.7C179.974 53.844 180.55 52.34 181.702 51.188C181.83 51.06 181.894 50.964 181.894 50.9H181.99L181.702 50.612C180.55 49.46 179.974 47.956 179.974 46.1ZM218.374 94.1C218.374 92.244 218.95 90.74 220.102 89.588C220.23 89.46 220.294 89.364 220.294 89.3H220.39L220.198 89.108C218.982 87.892 218.374 86.356 218.374 84.5C218.374 82.644 219.014 81.076 220.294 79.796C221.638 78.452 223.238 77.78 225.094 77.78C226.95 77.78 228.518 78.452 229.798 79.796C231.142 81.076 231.814 82.644 231.814 84.5C231.814 85.396 231.622 86.26 231.238 87.092C230.854 87.924 230.374 88.66 229.798 89.3L229.99 89.492C231.206 90.708 231.814 92.244 231.814 94.1C231.814 95.956 231.142 97.556 229.798 98.9C228.518 100.18 226.95 100.82 225.094 100.82C223.238 100.82 221.638 100.18 220.294 98.9C219.014 97.556 218.374 95.956 218.374 94.1ZM210.406 51.092C210.47 51.22 210.534 51.316 210.598 51.38C210.662 51.38 210.694 51.252 210.694 50.996L210.598 50.9L210.406 51.092ZM200.806 79.892C200.87 80.02 200.934 80.116 200.998 80.18C201.062 80.18 201.094 80.052 201.094 79.796L200.998 79.7L200.806 79.892ZM200.806 51.092C200.87 51.22 200.934 51.316 200.998 51.38C201.062 51.38 201.094 51.252 201.094 50.996L200.998 50.9L200.806 51.092ZM210.406 79.892C210.47 80.02 210.534 80.116 210.598 80.18C210.662 80.18 210.694 80.052 210.694 79.796L210.598 79.7L210.406 79.892ZM191.206 108.596C191.27 108.724 191.334 108.788 191.398 108.788C191.462 108.852 191.494 108.756 191.494 108.5H191.398L191.206 108.596ZM210.406 108.596C210.47 108.724 210.534 108.788 210.598 108.788C210.662 108.852 210.694 108.756 210.694 108.5H210.598L210.406 108.596ZM210.886 98.804C210.822 98.676 210.758 98.58 210.694 98.516C210.63 98.452 210.63 98.58 210.694 98.9V98.996L210.886 98.804ZM200.806 108.596C200.87 108.724 200.934 108.788 200.998 108.788C201.062 108.852 201.094 108.756 201.094 108.5H200.998L200.902 108.596H200.806ZM290.336 55.7C290.336 53.844 290.976 52.276 292.256 50.996C292.192 50.932 292.192 50.932 292.256 50.996C292.32 50.996 292.32 50.964 292.256 50.9C291.552 50.196 291.04 49.46 290.72 48.692C290.464 47.86 290.336 47.028 290.336 46.196C290.336 44.468 290.944 42.9 292.16 41.492C293.376 40.084 295.008 39.38 297.056 39.38C298.912 39.38 300.48 40.052 301.76 41.396C303.104 42.676 303.776 44.244 303.776 46.1C303.776 47.956 303.104 49.556 301.76 50.9L301.664 50.996C301.472 51.188 301.44 51.316 301.568 51.38C301.696 51.38 301.824 51.316 301.952 51.188C303.168 52.532 303.776 54.036 303.776 55.7C303.776 57.556 303.104 59.156 301.76 60.5L301.664 60.596C301.472 60.788 301.44 60.916 301.568 60.98C301.696 60.98 301.824 60.916 301.952 60.788C303.168 62.132 303.776 63.636 303.776 65.3C303.776 67.156 303.104 68.756 301.76 70.1C300.48 71.38 298.912 72.02 297.056 72.02C295.008 72.02 293.376 71.316 292.16 69.908C290.944 68.5 290.336 66.932 290.336 65.204C290.336 63.412 290.976 61.876 292.256 60.596L292.16 60.5C290.944 59.156 290.336 57.556 290.336 55.7ZM251.936 55.7C251.936 53.844 252.576 52.276 253.856 50.996C253.792 50.932 253.792 50.932 253.856 50.996C253.92 50.996 253.92 50.964 253.856 50.9C253.152 50.196 252.64 49.46 252.32 48.692C252.064 47.86 251.936 47.028 251.936 46.196C251.936 44.468 252.544 42.9 253.76 41.492C254.976 40.084 256.608 39.38 258.656 39.38C260.512 39.38 262.08 40.052 263.36 41.396C264.704 42.676 265.376 44.244 265.376 46.1C265.376 47.956 264.704 49.556 263.36 50.9L263.264 50.996C263.072 51.188 263.04 51.316 263.168 51.38C263.296 51.38 263.424 51.316 263.552 51.188C264.768 52.532 265.376 54.036 265.376 55.7C265.376 57.556 264.704 59.156 263.36 60.5L263.264 60.596C263.072 60.788 263.04 60.916 263.168 60.98C263.296 60.98 263.424 60.916 263.552 60.788C264.768 62.132 265.376 63.636 265.376 65.3C265.376 67.156 264.704 68.756 263.36 70.1C262.08 71.38 260.512 72.02 258.656 72.02C256.608 72.02 254.976 71.316 253.76 69.908C252.544 68.5 251.936 66.932 251.936 65.204C251.936 63.412 252.576 61.876 253.856 60.596L253.76 60.5C252.544 59.156 251.936 57.556 251.936 55.7ZM261.536 74.9C261.536 73.044 262.176 71.476 263.456 70.196C264.8 68.852 266.4 68.18 268.256 68.18C270.112 68.18 271.68 68.852 272.96 70.196C274.304 71.476 274.976 73.044 274.976 74.9C274.976 76.756 274.304 78.356 272.96 79.7C271.68 80.98 270.112 81.62 268.256 81.62C266.4 81.62 264.8 80.98 263.456 79.7C262.176 78.356 261.536 76.756 261.536 74.9ZM280.736 74.9C280.736 73.044 281.376 71.476 282.656 70.196C284 68.852 285.6 68.18 287.456 68.18C289.312 68.18 290.88 68.852 292.16 70.196C293.504 71.476 294.176 73.044 294.176 74.9C294.176 76.756 293.504 78.356 292.16 79.7C290.88 80.98 289.312 81.62 287.456 81.62C285.6 81.62 284 80.98 282.656 79.7C281.376 78.356 280.736 76.756 280.736 74.9ZM251.936 103.7C251.936 101.844 252.576 100.276 253.856 98.996C255.2 97.652 256.8 96.98 258.656 96.98C260.512 96.98 262.08 97.652 263.36 98.996C264.704 100.276 265.376 101.844 265.376 103.7C265.376 105.556 264.704 107.156 263.36 108.5C262.08 109.78 260.512 110.42 258.656 110.42C256.8 110.42 255.2 109.78 253.856 108.5C252.576 107.156 251.936 105.556 251.936 103.7ZM271.136 84.5C271.136 82.644 271.776 81.076 273.056 79.796C274.4 78.452 276 77.78 277.856 77.78C279.712 77.78 281.28 78.452 282.56 79.796C283.904 81.076 284.576 82.644 284.576 84.5C284.576 86.356 283.904 87.956 282.56 89.3C281.28 90.58 279.712 91.22 277.856 91.22C276 91.22 274.4 90.58 273.056 89.3C271.776 87.956 271.136 86.356 271.136 84.5ZM261.536 94.1C261.536 92.244 262.176 90.676 263.456 89.396C264.8 88.052 266.4 87.38 268.256 87.38C270.112 87.38 271.68 88.052 272.96 89.396C274.304 90.676 274.976 92.244 274.976 94.1C274.976 95.956 274.304 97.556 272.96 98.9C271.68 100.18 270.112 100.82 268.256 100.82C266.4 100.82 264.8 100.18 263.456 98.9C262.176 97.556 261.536 95.956 261.536 94.1ZM301.952 51.188C302.08 51.06 302.016 50.996 301.76 50.996C301.76 51.124 301.824 51.188 301.952 51.188ZM263.552 51.188C263.68 51.06 263.616 50.996 263.36 50.996C263.36 51.124 263.424 51.188 263.552 51.188ZM301.952 60.788C302.08 60.66 302.016 60.596 301.76 60.596C301.76 60.724 301.824 60.788 301.952 60.788ZM263.552 60.788C263.68 60.66 263.616 60.596 263.36 60.596C263.36 60.724 263.424 60.788 263.552 60.788ZM343.099 55.7C343.099 53.844 343.675 52.34 344.827 51.188C345.019 50.996 345.083 50.9 345.019 50.9C344.955 50.836 344.859 50.836 344.731 50.9C344.667 50.9 344.603 50.932 344.539 50.996C344.475 51.06 344.539 51.092 344.731 51.092C343.451 52.244 341.947 52.82 340.219 52.82C338.299 52.82 336.763 52.244 335.611 51.092C335.483 51.028 335.419 50.996 335.419 50.996V50.804L335.323 50.9C335.195 50.9 335.131 50.964 335.131 51.092C334.491 51.732 333.787 52.18 333.019 52.436C332.251 52.692 331.451 52.82 330.619 52.82C328.763 52.82 327.163 52.18 325.819 50.9C324.539 49.556 323.899 47.956 323.899 46.1C323.899 44.244 324.539 42.676 325.819 41.396C327.163 40.052 328.763 39.38 330.619 39.38C332.667 39.38 334.267 39.988 335.419 41.204C335.995 40.692 336.699 40.276 337.531 39.956C338.427 39.572 339.323 39.38 340.219 39.38C342.075 39.38 343.675 40.052 345.019 41.396C346.235 40.052 347.835 39.38 349.819 39.38C350.715 39.38 351.579 39.572 352.411 39.956C353.243 40.34 353.947 40.82 354.523 41.396V41.492L354.619 41.396C355.963 40.052 357.563 39.38 359.419 39.38C361.467 39.38 363.067 39.988 364.219 41.204C364.795 40.692 365.499 40.276 366.331 39.956C367.227 39.572 368.123 39.38 369.019 39.38C370.875 39.38 372.443 40.052 373.723 41.396C375.067 42.676 375.739 44.244 375.739 46.1C375.739 47.956 375.067 49.556 373.723 50.9C372.443 52.18 370.875 52.82 369.019 52.82C367.099 52.82 365.563 52.244 364.411 51.092C364.283 51.028 364.219 50.996 364.219 50.996V50.804L364.123 50.9C363.995 50.9 363.931 50.964 363.931 51.092C362.651 52.244 361.147 52.82 359.419 52.82C357.499 52.82 355.963 52.244 354.811 51.092C354.683 51.028 354.619 50.996 354.619 50.996V50.804L354.523 50.9C354.395 50.9 354.363 50.996 354.427 51.188C354.555 51.38 354.619 51.316 354.619 50.996L354.715 51.092C355.931 52.308 356.539 53.844 356.539 55.7C356.539 56.596 356.347 57.46 355.963 58.292C355.579 59.124 355.099 59.86 354.523 60.5L354.715 60.692C355.931 61.908 356.539 63.444 356.539 65.3C356.539 66.196 356.347 67.06 355.963 67.892C355.579 68.724 355.099 69.46 354.523 70.1L354.715 70.292C355.931 71.508 356.539 73.044 356.539 74.9C356.539 75.796 356.347 76.66 355.963 77.492C355.579 78.324 355.099 79.06 354.523 79.7L354.715 79.892C355.931 81.108 356.539 82.644 356.539 84.5C356.539 85.396 356.347 86.26 355.963 87.092C355.579 87.924 355.099 88.66 354.523 89.3L354.715 89.492C355.931 90.708 356.539 92.244 356.539 94.1C356.539 94.996 356.347 95.86 355.963 96.692C355.579 97.524 355.099 98.26 354.523 98.9L354.715 99.092C355.931 100.308 356.539 101.844 356.539 103.7C356.539 105.556 355.867 107.156 354.523 108.5C353.243 109.78 351.675 110.42 349.819 110.42C347.963 110.42 346.363 109.78 345.019 108.5C343.739 107.156 343.099 105.556 343.099 103.7C343.099 101.844 343.675 100.34 344.827 99.188C344.955 99.06 345.019 98.964 345.019 98.9H345.115L344.827 98.612C343.675 97.46 343.099 95.956 343.099 94.1C343.099 92.244 343.675 90.74 344.827 89.588C344.955 89.46 345.019 89.364 345.019 89.3H345.115L344.827 89.012C343.675 87.86 343.099 86.356 343.099 84.5C343.099 82.644 343.675 81.14 344.827 79.988C344.955 79.86 345.019 79.764 345.019 79.7H345.115L344.923 79.508C343.707 78.292 343.099 76.756 343.099 74.9C343.099 73.044 343.675 71.54 344.827 70.388C344.955 70.26 345.019 70.164 345.019 70.1H345.115L344.923 69.908C343.707 68.692 343.099 67.156 343.099 65.3C343.099 63.444 343.675 61.94 344.827 60.788C344.955 60.66 345.019 60.564 345.019 60.5H345.115L344.923 60.308C343.707 59.092 343.099 57.556 343.099 55.7ZM335.131 51.092C335.195 51.22 335.259 51.316 335.323 51.38C335.387 51.38 335.419 51.252 335.419 50.996L335.323 50.9L335.131 51.092ZM363.931 51.092C363.995 51.22 364.059 51.316 364.123 51.38C364.187 51.38 364.219 51.252 364.219 50.996L364.123 50.9L363.931 51.092ZM344.731 51.092C344.859 51.028 344.923 50.996 344.923 50.996V50.9L344.731 51.092ZM395.861 84.5C395.861 82.644 396.437 81.14 397.589 79.988C397.717 79.86 397.781 79.764 397.781 79.7H397.877L397.589 79.412C396.437 78.26 395.861 76.756 395.861 74.9C395.861 73.044 396.437 71.54 397.589 70.388C397.717 70.26 397.781 70.164 397.781 70.1H397.877L397.589 69.812C396.437 68.66 395.861 67.156 395.861 65.3C395.861 63.444 396.437 61.94 397.589 60.788C397.717 60.66 397.781 60.564 397.781 60.5H397.877L397.685 60.308C396.469 59.092 395.861 57.556 395.861 55.7C395.861 53.844 396.501 52.276 397.781 50.996C399.125 49.652 400.725 48.98 402.581 48.98C404.437 48.98 406.005 49.652 407.285 50.996C408.629 52.276 409.301 53.844 409.301 55.7C409.301 56.596 409.109 57.46 408.725 58.292C408.341 59.124 407.861 59.86 407.285 60.5L407.477 60.692C408.693 61.908 409.301 63.444 409.301 65.3C409.301 66.196 409.109 67.06 408.725 67.892C408.341 68.724 407.861 69.46 407.285 70.1L407.477 70.292C408.693 71.508 409.301 73.044 409.301 74.9C409.301 75.796 409.109 76.66 408.725 77.492C408.341 78.324 407.861 79.06 407.285 79.7L407.477 79.892C408.693 81.108 409.301 82.644 409.301 84.5C409.301 85.396 409.109 86.26 408.725 87.092C408.341 87.924 407.861 88.66 407.285 89.3L407.477 89.492C408.693 90.708 409.301 92.244 409.301 94.1C409.301 95.956 408.629 97.556 407.285 98.9C406.005 100.18 404.437 100.82 402.581 100.82C400.725 100.82 399.125 100.18 397.781 98.9C396.501 97.556 395.861 95.956 395.861 94.1C395.861 92.244 396.437 90.74 397.589 89.588C397.717 89.46 397.781 89.364 397.781 89.3H397.877L397.589 89.012C396.437 87.86 395.861 86.356 395.861 84.5ZM434.261 84.5C434.261 82.644 434.837 81.14 435.989 79.988C436.117 79.86 436.181 79.764 436.181 79.7H436.277L435.989 79.412C434.837 78.26 434.261 76.756 434.261 74.9C434.261 73.044 434.837 71.54 435.989 70.388C436.117 70.26 436.181 70.164 436.181 70.1H436.277L435.989 69.812C434.837 68.66 434.261 67.156 434.261 65.3C434.261 63.444 434.837 61.94 435.989 60.788C436.117 60.66 436.181 60.564 436.181 60.5H436.277L436.085 60.308C434.869 59.092 434.261 57.556 434.261 55.7C434.261 53.844 434.901 52.276 436.181 50.996C437.525 49.652 439.125 48.98 440.981 48.98C442.837 48.98 444.405 49.652 445.685 50.996C447.029 52.276 447.701 53.844 447.701 55.7C447.701 56.596 447.509 57.46 447.125 58.292C446.741 59.124 446.261 59.86 445.685 60.5L445.877 60.692C447.093 61.908 447.701 63.444 447.701 65.3C447.701 66.196 447.509 67.06 447.125 67.892C446.741 68.724 446.261 69.46 445.685 70.1L445.877 70.292C447.093 71.508 447.701 73.044 447.701 74.9C447.701 75.796 447.509 76.66 447.125 77.492C446.741 78.324 446.261 79.06 445.685 79.7L445.877 79.892C447.093 81.108 447.701 82.644 447.701 84.5C447.701 85.396 447.509 86.26 447.125 87.092C446.741 87.924 446.261 88.66 445.685 89.3L445.877 89.492C447.093 90.708 447.701 92.244 447.701 94.1C447.701 95.956 447.029 97.556 445.685 98.9C444.405 100.18 442.837 100.82 440.981 100.82C439.125 100.82 437.525 100.18 436.181 98.9C434.901 97.556 434.261 95.956 434.261 94.1C434.261 92.244 434.837 90.74 435.989 89.588C436.117 89.46 436.181 89.364 436.181 89.3H436.277L435.989 89.012C434.837 87.86 434.261 86.356 434.261 84.5ZM405.461 103.7C405.461 101.844 406.101 100.276 407.381 98.996C408.725 97.652 410.325 96.98 412.181 96.98C414.229 96.98 415.829 97.588 416.981 98.804C417.557 98.292 418.261 97.876 419.093 97.556C419.989 97.172 420.885 96.98 421.781 96.98C423.637 96.98 425.173 97.588 426.389 98.804C426.453 98.868 426.517 98.9 426.581 98.9V98.996C426.709 98.996 426.773 98.932 426.773 98.804C427.989 97.588 429.525 96.98 431.381 96.98C433.237 96.98 434.805 97.652 436.085 98.996C437.429 100.276 438.101 101.844 438.101 103.7C438.101 105.556 437.429 107.156 436.085 108.5C434.805 109.78 433.237 110.42 431.381 110.42C429.461 110.42 427.925 109.844 426.773 108.692C426.645 108.564 426.581 108.5 426.581 108.5V108.404L426.485 108.5C426.357 108.5 426.293 108.532 426.293 108.596V108.692C425.013 109.844 423.509 110.42 421.781 110.42C419.861 110.42 418.325 109.844 417.173 108.692C417.045 108.564 416.981 108.5 416.981 108.5V108.404L416.885 108.5C416.757 108.5 416.693 108.532 416.693 108.596V108.692C415.413 109.844 413.909 110.42 412.181 110.42C410.325 110.42 408.725 109.78 407.381 108.5C406.101 107.156 405.461 105.556 405.461 103.7ZM405.461 46.1C405.461 44.244 406.101 42.676 407.381 41.396C408.725 40.052 410.325 39.38 412.181 39.38C414.037 39.38 415.573 39.988 416.789 41.204C416.853 41.268 416.917 41.3 416.981 41.3V41.396C417.109 41.396 417.173 41.332 417.173 41.204C418.389 39.988 419.925 39.38 421.781 39.38C423.637 39.38 425.237 40.052 426.581 41.396C427.797 40.052 429.397 39.38 431.381 39.38C433.237 39.38 434.805 40.052 436.085 41.396C437.429 42.676 438.101 44.244 438.101 46.1C438.101 47.956 437.429 49.556 436.085 50.9C434.805 52.18 433.237 52.82 431.381 52.82C429.461 52.82 427.925 52.244 426.773 51.092C426.645 51.028 426.581 50.996 426.581 50.996V50.804L426.485 50.9C426.357 50.9 426.293 50.964 426.293 51.092C425.013 52.244 423.509 52.82 421.781 52.82C419.861 52.82 418.325 52.244 417.173 51.092C417.045 51.028 416.981 50.996 416.981 50.996V50.804L416.885 50.9C416.757 50.9 416.693 50.964 416.693 51.092C415.413 52.244 413.909 52.82 412.181 52.82C410.325 52.82 408.725 52.18 407.381 50.9C406.101 49.556 405.461 47.956 405.461 46.1ZM426.293 51.092C426.357 51.22 426.421 51.316 426.485 51.38C426.549 51.38 426.581 51.252 426.581 50.996L426.485 50.9L426.293 51.092ZM416.693 51.092C416.757 51.22 416.821 51.316 416.885 51.38C416.949 51.38 416.981 51.252 416.981 50.996L416.885 50.9L416.693 51.092ZM416.693 108.596C416.757 108.724 416.821 108.788 416.885 108.788C416.949 108.852 416.981 108.756 416.981 108.5H416.885L416.693 108.596ZM426.773 98.804C426.709 98.676 426.645 98.58 426.581 98.516C426.517 98.452 426.517 98.58 426.581 98.9V98.996L426.773 98.804ZM417.173 41.204C417.109 41.076 417.045 40.98 416.981 40.916C416.917 40.852 416.917 40.98 416.981 41.3V41.396L417.173 41.204ZM426.293 108.596C426.357 108.724 426.421 108.788 426.485 108.788C426.549 108.852 426.581 108.756 426.581 108.5H426.485L426.389 108.596H426.293ZM506.224 84.5C506.224 82.644 506.8 81.14 507.952 79.988C508.016 79.924 508.048 79.86 508.048 79.796C508.176 79.54 508.08 79.508 507.76 79.7C507.504 79.828 507.536 79.892 507.856 79.892C507.216 80.532 506.512 80.98 505.744 81.236C504.976 81.492 504.176 81.62 503.344 81.62C501.424 81.62 499.888 81.044 498.736 79.892C498.608 79.828 498.544 79.796 498.544 79.796V79.604L498.448 79.7C498.32 79.7 498.256 79.764 498.256 79.892C497.616 80.532 496.912 80.98 496.144 81.236C495.376 81.492 494.576 81.62 493.744 81.62C491.824 81.62 490.288 81.044 489.136 79.892C489.008 79.828 488.944 79.796 488.944 79.796V79.604L488.848 79.7C488.72 79.7 488.656 79.764 488.656 79.892C488.016 80.532 487.312 80.98 486.544 81.236C485.776 81.492 484.976 81.62 484.144 81.62C482.224 81.62 480.688 81.044 479.536 79.892C479.408 79.828 479.344 79.796 479.344 79.796V79.604L479.248 79.7C479.12 79.7 479.088 79.796 479.152 79.988C479.28 80.18 479.344 80.116 479.344 79.796L479.44 79.892C480.656 81.108 481.264 82.644 481.264 84.5C481.264 85.396 481.072 86.26 480.688 87.092C480.304 87.924 479.824 88.66 479.248 89.3L479.44 89.492C480.656 90.708 481.264 92.244 481.264 94.1C481.264 94.996 481.072 95.86 480.688 96.692C480.304 97.524 479.824 98.26 479.248 98.9L479.44 99.092C480.656 100.308 481.264 101.844 481.264 103.7C481.264 105.556 480.592 107.156 479.248 108.5C477.968 109.78 476.4 110.42 474.544 110.42C472.688 110.42 471.088 109.78 469.744 108.5C468.464 107.156 467.824 105.556 467.824 103.7C467.824 101.844 468.4 100.34 469.552 99.188C469.68 99.06 469.744 98.964 469.744 98.9H469.84L469.552 98.612C468.4 97.46 467.824 95.956 467.824 94.1C467.824 92.244 468.4 90.74 469.552 89.588C469.68 89.46 469.744 89.364 469.744 89.3H469.84L469.552 89.012C468.4 87.86 467.824 86.356 467.824 84.5C467.824 82.644 468.4 81.14 469.552 79.988C469.68 79.86 469.744 79.764 469.744 79.7H469.84L469.552 79.412C468.4 78.26 467.824 76.756 467.824 74.9C467.824 73.044 468.4 71.54 469.552 70.388C469.68 70.26 469.744 70.164 469.744 70.1H469.84L469.552 69.812C468.4 68.66 467.824 67.156 467.824 65.3C467.824 63.444 468.4 61.94 469.552 60.788C469.68 60.66 469.744 60.564 469.744 60.5H469.84L469.552 60.212C468.4 59.06 467.824 57.556 467.824 55.7C467.824 53.844 468.4 52.34 469.552 51.188C469.68 51.06 469.744 50.964 469.744 50.9H469.84L469.552 50.612C468.4 49.46 467.824 47.956 467.824 46.1C467.824 44.244 468.464 42.676 469.744 41.396C471.088 40.052 472.688 39.38 474.544 39.38C476.4 39.38 477.968 40.052 479.248 41.396C480.592 42.676 481.264 44.244 481.264 46.1C481.264 46.996 481.072 47.86 480.688 48.692C480.304 49.524 479.824 50.26 479.248 50.9L479.44 51.092C480.656 52.308 481.264 53.844 481.264 55.7C481.264 56.596 481.072 57.46 480.688 58.292C480.304 59.124 479.824 59.86 479.248 60.5L479.44 60.692C480.656 61.908 481.264 63.444 481.264 65.3C481.264 66.196 481.072 67.06 480.688 67.892C480.304 68.724 479.824 69.46 479.248 70.1L479.344 70.196C480.56 68.852 482.16 68.18 484.144 68.18C486.192 68.18 487.792 68.788 488.944 70.004C489.52 69.492 490.224 69.076 491.056 68.756C491.952 68.372 492.848 68.18 493.744 68.18C495.6 68.18 497.2 68.852 498.544 70.196C499.76 68.852 501.36 68.18 503.344 68.18C505.136 68.18 506.64 68.788 507.856 70.004C507.792 70.004 507.76 70.036 507.76 70.1C507.76 70.164 507.856 70.196 508.048 70.196H508.144V70.1H508.24L507.952 69.812C506.8 68.66 506.224 67.156 506.224 65.3C506.224 63.444 506.8 61.94 507.952 60.788C508.08 60.66 508.144 60.564 508.144 60.5H508.24L507.952 60.212C506.8 59.06 506.224 57.556 506.224 55.7C506.224 53.844 506.8 52.34 507.952 51.188C508.08 51.06 508.144 50.964 508.144 50.9H508.24L508.048 50.708C506.832 49.492 506.224 47.956 506.224 46.1C506.224 44.244 506.864 42.676 508.144 41.396C509.488 40.052 511.088 39.38 512.944 39.38C514.8 39.38 516.368 40.052 517.648 41.396C518.992 42.676 519.664 44.244 519.664 46.1C519.664 46.996 519.472 47.86 519.088 48.692C518.704 49.524 518.224 50.26 517.648 50.9L517.84 51.092C519.056 52.308 519.664 53.844 519.664 55.7C519.664 56.596 519.472 57.46 519.088 58.292C518.704 59.124 518.224 59.86 517.648 60.5L517.84 60.692C519.056 61.908 519.664 63.444 519.664 65.3C519.664 66.196 519.472 67.06 519.088 67.892C518.704 68.724 518.224 69.46 517.648 70.1L517.84 70.292C519.056 71.508 519.664 73.044 519.664 74.9C519.664 75.796 519.472 76.66 519.088 77.492C518.704 78.324 518.224 79.06 517.648 79.7L517.84 79.892C519.056 81.108 519.664 82.644 519.664 84.5C519.664 85.396 519.472 86.26 519.088 87.092C518.704 87.924 518.224 88.66 517.648 89.3L517.84 89.492C519.056 90.708 519.664 92.244 519.664 94.1C519.664 94.996 519.472 95.86 519.088 96.692C518.704 97.524 518.224 98.26 517.648 98.9L517.84 99.092C519.056 100.308 519.664 101.844 519.664 103.7C519.664 105.556 518.992 107.156 517.648 108.5C516.368 109.78 514.8 110.42 512.944 110.42C511.088 110.42 509.488 109.78 508.144 108.5C506.864 107.156 506.224 105.556 506.224 103.7C506.224 101.844 506.8 100.34 507.952 99.188C508.08 99.06 508.144 98.964 508.144 98.9H508.24L508.048 98.708C506.832 97.492 506.224 95.956 506.224 94.1C506.224 92.244 506.8 90.74 507.952 89.588C508.08 89.46 508.144 89.364 508.144 89.3H508.24L508.048 89.108C506.832 87.892 506.224 86.356 506.224 84.5ZM488.656 79.892C488.72 80.02 488.784 80.116 488.848 80.18C488.912 80.18 488.944 80.052 488.944 79.796L488.848 79.7L488.656 79.892ZM498.256 79.892C498.32 80.02 498.384 80.116 498.448 80.18C498.512 80.18 498.544 80.052 498.544 79.796L498.448 79.7L498.256 79.892ZM507.856 70.004C507.984 70.004 508.048 70.068 508.048 70.196H508.144V70.1C508.144 69.844 508.048 69.812 507.856 70.004ZM507.856 79.892C507.984 79.828 508.048 79.796 508.048 79.796V79.7L507.856 79.892Z" fill="white"/>
</svg>
