<svg width="35" height="43" viewBox="0 0 35 43" fill="none" xmlns="http://www.w3.org/2000/svg">
<path fill-rule="evenodd" clip-rule="evenodd" d="M17.5 0C12.2533 0 8 4.25329 8 9.5V10H1.5C0.671573 10 0 10.6716 0 11.5C0 12.3284 0.671573 13 1.5 13H33.5C34.3284 13 35 12.3284 35 11.5C35 10.6716 34.3284 10 33.5 10H27V9.5C27 4.25329 22.7467 0 17.5 0ZM17.5 3C21.0899 3 24 5.91015 24 9.5V10H11V9.5C11 5.91015 13.9102 3 17.5 3Z" fill="#78D36A"/>
<path d="M4.99328 15.3581C4.91492 14.5334 4.18283 13.9284 3.35812 14.0067C2.53341 14.0851 1.92837 14.8172 2.00673 15.6419C2.19566 17.6304 2.53665 20.0806 2.97496 23.2301L3.53805 27.2763C4.07639 31.1458 4.38169 33.3402 5.04219 35.138C6.27141 38.4836 8.46411 41.1657 11.2841 42.3557C12.8155 43.0019 14.567 43.0011 17.1747 43.0001H17.8253C20.433 43.0011 22.1845 43.0019 23.7159 42.3557C26.5359 41.1657 28.7286 38.4836 29.9578 35.138C30.6183 33.3402 30.9236 31.1457 31.462 27.2762L32.025 23.2302C32.4633 20.0806 32.8043 17.6304 32.9933 15.6419C33.0716 14.8172 32.4666 14.0851 31.6419 14.0067C30.8172 13.9284 30.0851 14.5334 30.0067 15.3581C29.8247 17.274 29.493 19.6601 29.0487 22.8522L28.5241 26.6223C27.943 30.7975 27.6769 32.6471 27.1419 34.1034C26.1101 36.9116 24.3944 38.8132 22.5495 39.5917C21.6491 39.9716 20.5583 40 17.5 40C14.4417 40 13.3509 39.9716 12.4505 39.5917C10.6056 38.8132 8.88992 36.9116 7.85814 34.1033C7.32312 32.6471 7.05701 30.7975 6.47596 26.6223L5.95128 22.8522C5.50704 19.6601 5.17531 17.2741 4.99328 15.3581Z" fill="#78D36A"/>
<path d="M15 17.5C15 16.6716 14.3284 16 13.5 16C12.6716 16 12 16.6716 12 17.5V33.5C12 34.3284 12.6716 35 13.5 35C14.3284 35 15 34.3284 15 33.5V17.5Z" fill="#78D36A"/>
<path d="M23 17.5C23 16.6716 22.3284 16 21.5 16C20.6716 16 20 16.6716 20 17.5V33.5C20 34.3284 20.6716 35 21.5 35C22.3284 35 23 34.3284 23 33.5V17.5Z" fill="#78D36A"/>
</svg>
