<svg width="84" height="84" viewBox="0 0 84 84" fill="none" xmlns="http://www.w3.org/2000/svg">
<path d="M42 7.875L7.875 18.375L16.0269 20.877L23.625 23.2148V30.208C23.2969 30.6079 23.0508 30.9976 22.856 31.4077C22.3843 32.4023 22.0869 33.5098 21.8203 34.8223C21.3179 37.314 21.0513 40.5337 21.0205 44.061C19.4209 45.4966 18.375 47.5576 18.375 49.875C18.375 53.228 20.7539 55.6479 23.7173 56.7759C24.9067 60.2007 26.8857 63.9639 29.7363 67.1528C32.8535 70.6289 37.0166 73.5 42 73.5C46.9834 73.5 51.1465 70.6289 54.2637 67.1528C57.1143 63.9639 59.0933 60.2007 60.2827 56.7759C63.2461 55.6479 65.625 53.228 65.625 49.875C65.625 47.5576 64.5894 45.4658 62.9692 44.02C62.9385 40.5029 62.6719 37.3037 62.1797 34.8223C61.9131 33.5098 61.6157 32.4023 61.144 31.4077C60.9492 30.9976 60.7031 30.6079 60.375 30.208V23.2148L76.125 18.375L42 7.875ZM42 13.3711L58.2832 18.375L42 23.3789L25.7168 18.375L42 13.3711ZM28.875 24.835L42 28.875L42.7793 28.6392L55.125 24.835V30.9258C55.0942 30.9668 55.125 30.9771 55.002 31.0591C54.5918 31.4077 53.7407 31.9102 52.5718 32.3818C50.2236 33.3149 46.5835 34.125 42 34.125C37.4165 34.125 33.7764 33.3149 31.4282 32.3818C30.2593 31.9102 29.4082 31.4077 28.998 31.0591C28.875 30.9771 28.9058 30.9668 28.875 30.9258V24.835ZM26.9473 35.981C27.7061 36.4424 28.5264 36.873 29.4902 37.2524C32.5767 38.4829 36.8115 39.375 42 39.375C47.1885 39.375 51.4233 38.4829 54.5098 37.2524C55.4736 36.873 56.2939 36.4424 57.0527 35.981C57.4629 38.1035 57.75 41.2002 57.75 44.625V46.8501L59.0625 47.6191C59.8623 48.0703 60.375 48.8804 60.375 49.875C60.375 51.2798 59.3291 52.3564 57.9551 52.4692L56.1914 52.6128L55.6685 54.3047C54.7969 57.145 52.8486 60.8569 50.3364 63.6562C47.8345 66.4556 44.9121 68.25 42 68.25C39.0879 68.25 36.1655 66.4556 33.6636 63.6562C31.1514 60.8569 29.2031 57.145 28.3315 54.3047L27.8086 52.6128L26.0449 52.4692C24.6709 52.3564 23.625 51.2798 23.625 49.875C23.625 48.8906 24.148 48.0806 24.958 47.6191L26.3013 46.8398L26.25 44.625V44.5942C26.25 41.1899 26.5371 38.1035 26.9473 35.981ZM21.4512 44.625H23.6353L21.4307 44.6763L21.4512 44.625ZM34.125 47.25C32.6792 47.25 31.5 48.4292 31.5 49.875C31.5 51.3208 32.6792 52.5 34.125 52.5C35.5708 52.5 36.75 51.3208 36.75 49.875C36.75 48.4292 35.5708 47.25 34.125 47.25ZM49.875 47.25C48.4292 47.25 47.25 48.4292 47.25 49.875C47.25 51.3208 48.4292 52.5 49.875 52.5C51.3208 52.5 52.5 51.3208 52.5 49.875C52.5 48.4292 51.3208 47.25 49.875 47.25Z" fill="white"/>
</svg>
