<svg width="64" height="65" viewBox="0 0 64 65" fill="none" xmlns="http://www.w3.org/2000/svg">
<path d="M32 0C49.5484 0 64 14.6774 64 32.5C64 50.4536 49.5484 65 32 65C14.3226 65 0 50.4536 0 32.5C0 14.6774 14.3226 0 32 0ZM46.7097 22.1472C46.8387 21.754 46.8387 21.3609 46.7097 20.8367C46.7097 20.5746 46.4516 20.1814 46.3226 20.0504C45.9355 19.6573 45.2903 19.6573 45.0323 19.6573C43.871 19.6573 41.9355 20.3125 33.0323 24.1129C29.9355 25.4234 23.7419 28.0444 14.4516 32.2379C12.9032 32.8931 12.129 33.4173 12 34.0726C11.871 35.121 13.5484 35.5141 15.4839 36.1694C17.1613 36.6935 19.3548 37.3488 20.5161 37.3488C21.5484 37.3488 22.7097 36.9556 24 36.0383C32.6452 30.0101 37.1613 26.996 37.4194 26.996C37.6774 26.996 37.9355 26.8649 38.0645 26.996C38.3226 27.2581 38.3226 27.5202 38.1935 27.6512C38.0645 28.3064 29.9355 35.9073 29.4194 36.4314C27.6129 38.2661 25.5484 39.4456 28.7742 41.5423C31.4839 43.377 33.0323 44.5564 35.871 46.3911C37.6774 47.5706 39.0968 49.0121 40.9032 48.881C41.8064 48.75 42.7097 47.9637 43.0968 45.4738C44.2581 39.8387 46.3226 27.2581 46.7097 22.1472Z" fill="white"/>
</svg>
