<svg width="1769" height="1452" viewBox="0 0 1769 1452" fill="none" xmlns="http://www.w3.org/2000/svg">
<path d="M827.432 444.996C826.998 443.731 826.564 442.467 849.675 393.497C872.786 344.528 919.455 247.891 952.44 186.08C985.424 124.269 1003.31 100.213 1026.77 78.8781C1050.22 57.5437 1078.71 39.6604 1107.88 26.3772C1164.34 0.669514 1211.12 -2.43006 1262.71 12.3692C1300.14 23.1064 1356.29 52.7165 1388.95 71.6385C1421.61 90.5604 1428.04 101.047 1432.43 109.609C1439.86 124.074 1439.21 139.521 1432.44 161.179C1422.6 192.651 1393.91 233.526 1341.75 293.727C1309.3 331.171 1260.75 379.026 1229.34 409.77C1185.24 452.945 1162.86 473.685 1141.28 496.689C1128.06 510.769 1104.98 524.191 1096.72 532.186C1090.22 538.475 1154.29 529.723 1270.13 524.976C1332.57 522.417 1400.68 558.975 1484.03 634.46C1567.38 709.945 1663.44 833.327 1713.66 907.261C1774.23 996.421 1766.15 1035.63 1762.79 1058.98C1759.7 1080.42 1744.66 1095.59 1730.15 1108.24C1713.68 1122.59 1683.38 1128.83 1642.88 1132.12C1594.42 1136.06 1542.45 1121.55 1470.99 1094.51C1423.52 1076.54 1357.12 1040.65 1299.06 1005.74C1241.01 970.833 1194.29 935.617 1159.21 912.157C1079.86 859.085 1065.28 852.86 1043.02 834.648C1034.29 827.501 1022.95 816.5 1038.6 839.8C1054.26 863.1 1097.4 920.849 1123.74 961.549C1162.57 1021.55 1167.93 1076.8 1169.11 1131.08C1170.02 1172.67 1168.43 1213.47 1168.48 1259.18C1168.59 1357.92 1126.23 1419.11 1119.11 1427.35C1109.27 1438.76 1078.52 1441.8 1045.18 1446.46C985.55 1454.79 917.214 1415.16 884.922 1382.17C859.336 1356.02 825.6 1301.31 803.588 1261.68C769.16 1199.69 766.778 1152.01 770.57 1111.38C775.199 1061.78 809.046 1003.26 822.536 946.943C827.44 926.472 827.067 922.158 822.852 922.167C809.545 922.199 792.419 939.301 763.922 970.026C743.761 991.763 715.474 1029.08 680.427 1067.77C645.38 1106.45 605.31 1146.16 575.879 1172.92C530.502 1214.17 485.125 1232.92 441.418 1242.7C414.185 1248.8 396.379 1232.89 374.368 1213.28C333.423 1176.8 315.397 1135.8 312.503 1108.45C308.024 1066.12 307.46 1036.77 339.233 967.534C347.519 949.479 358.683 936.994 382.611 912.42C406.539 887.846 444.544 852.413 470.618 830.441C528.324 781.816 572.469 769.482 590.413 757.726C603.497 749.154 538.122 782.265 464.217 807.088C417.221 822.872 345.564 825.066 291.158 823.144C236.752 821.223 200.392 809.991 173.189 800.114C128.356 783.835 91.1983 757.45 57.7166 727.474C34.845 706.997 26.4298 679.319 13.2003 653.291C-0.518243 626.301 2.49379 593.263 8.92904 560.274C16.6229 520.832 40.2299 497.426 60.0163 484.706C90.8784 464.866 120.275 456.153 144.783 449.98C186.698 439.421 243.209 426.165 299.527 425.143C324.325 424.693 341.179 432.858 393.096 456.844C445.014 480.83 531.415 522.556 574.013 542.601C616.612 562.645 612.79 559.745 608.041 554.272C583.781 526.309 564.505 500.249 518.988 468.68C482.443 443.333 410.004 412.788 368.692 391.783C327.38 370.777 317.195 363.749 309.777 353.807C282.123 316.741 296.701 255.162 311.165 213.938C319.586 189.936 347.396 178.111 372.973 169.754C406.46 158.813 448.036 161.709 488.242 167.831C507.859 170.818 525.514 175.7 558.374 189.396C591.234 203.092 638.67 226.001 670.958 243.175C719.975 269.249 744.487 290.909 764.899 316.123C817.001 380.481 823.643 413.252 834.273 429.619" stroke="#73D065" stroke-opacity="0.32" stroke-width="7" stroke-linecap="round"/>
</svg>
