<svg width="680" height="559" viewBox="0 0 680 559" fill="none" xmlns="http://www.w3.org/2000/svg">
<path d="M317.916 171.975C317.75 171.493 317.584 171.01 326.404 152.323C335.223 133.636 353.032 96.7594 365.619 73.1722C378.206 49.585 385.031 40.405 393.982 32.2637C402.932 24.1225 413.802 17.2981 424.935 12.2292C446.482 2.41908 464.334 1.23628 484.02 6.88372C498.303 10.9811 519.728 22.2804 532.192 29.501C544.656 36.7217 547.109 40.7233 548.786 43.9908C551.62 49.5105 551.373 55.4053 548.789 63.67C545.034 75.68 534.086 91.2777 514.179 114.251C501.798 128.539 483.269 146.801 471.286 158.533C454.456 175.009 445.917 182.923 437.679 191.702C432.637 197.074 423.829 202.196 420.676 205.247C418.197 207.647 442.645 204.307 486.85 202.496C510.678 201.519 536.67 215.47 568.475 244.275C600.28 273.081 636.939 320.163 656.104 348.377C679.216 382.401 676.134 397.363 674.851 406.274C673.672 414.455 667.934 420.245 662.396 425.071C656.112 430.548 644.547 432.928 629.094 434.185C610.6 435.689 590.768 430.152 563.499 419.831C545.386 412.975 520.044 399.278 497.89 385.957C475.737 372.636 457.91 359.197 444.524 350.245C414.243 329.993 408.679 327.617 400.185 320.667C396.852 317.94 392.525 313.742 398.499 322.634C404.473 331.525 420.937 353.562 430.989 369.094C445.806 391.989 447.849 413.073 448.301 433.786C448.648 449.656 448.041 465.229 448.061 482.672C448.104 520.348 431.937 543.699 429.222 546.845C425.466 551.197 413.731 552.358 401.01 554.136C378.254 557.316 352.177 542.194 339.854 529.602C330.09 519.625 317.216 498.748 308.816 483.624C295.679 459.969 294.77 441.772 296.217 426.269C297.983 407.343 310.899 385.01 316.047 363.52C317.919 355.708 317.776 354.062 316.168 354.065C311.09 354.077 304.554 360.604 293.68 372.328C285.986 380.623 275.192 394.865 261.818 409.626C248.444 424.388 233.153 439.541 221.922 449.752C204.606 465.496 187.29 472.65 170.611 476.383C160.219 478.708 153.425 472.638 145.025 465.154C129.4 451.234 122.521 435.588 121.417 425.149C119.708 408.997 119.493 397.797 131.617 371.377C134.779 364.487 139.039 359.723 148.171 350.346C157.302 340.968 171.804 327.447 181.754 319.062C203.775 300.507 220.621 295.8 227.468 291.314C232.461 288.043 207.514 300.678 179.312 310.151C161.378 316.174 134.033 317.011 113.272 316.278C92.5105 315.544 78.6351 311.258 68.2547 307.489C51.1461 301.277 36.9666 291.208 24.1899 279.77C15.4621 271.956 12.2508 261.394 7.20235 251.461C1.96733 241.162 3.11673 228.555 5.57244 215.966C8.50844 200.914 17.5169 191.983 25.0675 187.129C36.8446 179.558 48.0625 176.233 57.4145 173.877C73.4096 169.848 94.9744 164.789 116.465 164.399C125.928 164.228 132.36 167.343 152.172 176.496C171.984 185.65 204.955 201.572 221.21 209.221C237.466 216.871 236.007 215.764 234.195 213.675C224.938 203.005 217.582 193.06 200.212 181.013C186.267 171.341 158.624 159.685 142.859 151.669C127.094 143.653 123.207 140.971 120.377 137.177C109.824 123.033 115.387 99.5343 120.906 83.8028C124.12 74.6437 134.732 70.1314 144.493 66.9423C157.271 62.767 173.137 63.8723 188.48 66.2084C195.965 67.3482 202.703 69.2113 215.242 74.4377C227.782 79.6641 245.884 88.406 258.205 94.96C276.91 104.91 286.263 113.175 294.053 122.797C313.935 147.356 316.47 159.862 320.526 166.107" stroke="#95DB89" stroke-width="7" stroke-linecap="round"/>
</svg>
