<svg width="64" height="64" viewBox="0 0 64 64" fill="none" xmlns="http://www.w3.org/2000/svg">
<path d="M4.42857 4.57143C8.85714 0 16.1429 0 30.7143 0H33.1429C47.7143 0 55 0 59.4286 4.57143C64 9 64 16.2857 64 30.8571V33.2857C64 47.8571 64 55.1429 59.4286 59.5714C55 64 47.7143 64 33.1429 64H30.7143C16.1429 64 8.85714 64 4.42857 59.5714C0 55.1429 0 47.8571 0 33.2857V30.8571C0 16.2857 0 9 4.42857 4.57143ZM10.7143 19.5714C11.1429 36.1429 19.4286 46.1429 34 46.1429H34.8571V36.7143C37.4286 37 39.8571 38 41.7143 39.7143C43.7143 41.4286 45.1429 43.7143 45.8571 46.1429H53.4286C52.7143 43.2857 51.2857 40.5714 49.4286 38.2857C47.4286 36 45.1429 34.1429 42.4286 32.8571C44.8571 31.4286 46.8571 29.4286 48.5714 27.1429C50.1429 24.8571 51.2857 22.2857 51.8571 19.5714H45C43.4286 24.8571 39 29.5714 34.8571 30V19.5714H28V38C23.7143 36.8571 18.2857 31.7143 18 19.5714H10.7143Z" fill="white"/>
</svg>
